<svg height="682.66668pt" viewBox="-21 -21 682.66668 682.66668" width="682.66668pt" xmlns="http://www.w3.org/2000/svg"><path d="m618.667969 640h-597.335938c-11.78125 0-21.332031-9.550781-21.332031-21.332031v-32.003907c0-1.65625.382812-3.285156 1.117188-4.765624l21.335937-42.664063c1.808594-3.621094 5.507813-5.90625 9.546875-5.898437h575.996094c4.042968-.007813 7.742187 2.277343 9.550781 5.898437l21.335937 42.664063c.734376 1.480468 1.117188 3.109374 1.117188 4.765624v32.003907c0 11.78125-9.550781 21.332031-21.332031 21.332031zm-597.335938-50.816406v29.484375h597.335938v-29.484375l-17.261719-34.515625h-562.8125zm0 0"/><path d="m64 597.332031h-53.332031c-5.894531 0-10.667969-4.773437-10.667969-10.667969 0-5.886718 4.773438-10.664062 10.667969-10.664062h53.332031c5.890625 0 10.667969 4.777344 10.667969 10.664062 0 5.894532-4.777344 10.667969-10.667969 10.667969zm0 0"/><path d="m629.332031 597.332031h-522.667969c-5.886718 0-10.664062-4.773437-10.664062-10.667969 0-5.886718 4.777344-10.664062 10.664062-10.664062h522.667969c5.890625 0 10.667969 4.777344 10.667969 10.664062 0 5.894532-4.777344 10.667969-10.667969 10.667969zm0 0"/><path d="m607.996094 554.667969h-575.996094c-5.890625 0-10.667969-4.777344-10.667969-10.667969v-511.996094c0-17.675781 14.328125-32.003906 32.003907-32.003906h533.328124c17.675782 0 32.003907 14.328125 32.003907 32.003906v511.996094c0 5.890625-4.777344 10.667969-10.671875 10.667969zm-565.332032-21.332031h554.667969v-501.332032c0-5.894531-4.773437-10.671875-10.667969-10.671875h-533.328124c-5.894532 0-10.671876 4.777344-10.671876 10.671875zm0 0"/><path d="m320 554.667969c-5.890625 0-10.667969-4.777344-10.667969-10.667969v-533.332031c0-5.890625 4.777344-10.667969 10.667969-10.667969 5.886719 0 10.667969 4.777344 10.667969 10.667969v533.332031c0 5.890625-4.78125 10.667969-10.667969 10.667969zm0 0"/><path d="m277.332031 512h-202.664062c-5.894531 0-10.667969-4.773438-10.667969-10.667969v-447.996093c0-5.894532 4.773438-10.667969 10.667969-10.667969h202.664062c5.890625 0 10.664063 4.773437 10.664063 10.667969v447.996093c0 5.894531-4.773438 10.667969-10.664063 10.667969zm-192-21.332031h181.332031v-426.667969h-181.332031zm0 0"/><path d="m565.332031 512h-202.667969c-5.886718 0-10.664062-4.773438-10.664062-10.667969v-447.996093c0-5.894532 4.777344-10.667969 10.664062-10.667969h202.667969c5.894531 0 10.667969 4.773437 10.667969 10.667969v447.996093c0 5.894531-4.773438 10.667969-10.667969 10.667969zm-191.996093-21.332031h181.332031v-426.667969h-181.332031zm0 0"/><path d="m405.332031 138.667969c-4.3125 0-8.199219-2.597657-9.855469-6.585938-1.648437-3.984375-.734374-8.570312 2.316407-11.621093l31.996093-32.003907c4.191407-4.042969 10.839844-3.984375 14.957032.132813 4.109375 4.117187 4.167968 10.765625.125 14.949218l-31.996094 32.003907c-2 2-4.710938 3.125-7.542969 3.125zm0 0"/><path d="m416 192.003906c-4.316406-.007812-8.203125-2.605468-9.851562-6.589844-1.652344-3.984374-.738282-8.574218 2.308593-11.621093l85.335938-85.335938c4.183593-4.042969 10.835937-3.984375 14.953125.132813 4.113281 4.117187 4.167968 10.765625.128906 14.949218l-85.335938 85.339844c-1.996093 1.996094-4.710937 3.117188-7.539062 3.125zm0 0"/><path d="m234.667969 170.667969h-117.335938c-2.824219-.003907-5.539062-1.125-7.542969-3.128907l-42.664062-42.664062c-4.042969-4.1875-3.984375-10.835938.128906-14.953125 4.117188-4.117187 10.769532-4.167969 14.953125-.132813l39.539063 39.542969h79.640625l-47.582031-33.996093c-4.527344-3.230469-5.808594-9.394532-2.945313-14.164063l31.996094-53.328125c3.03125-5.054688 9.585937-6.691406 14.640625-3.664062 5.046875 3.03125 6.6875 9.585937 3.65625 14.640624l-26.945313 44.890626 66.65625 47.617187c3.765625 2.695313 5.363281 7.515625 3.945313 11.929687-1.410156 4.410157-5.511719 7.402344-10.140625 7.410157zm0 0"/><path d="m160 512c-4.0625.019531-7.785156-2.265625-9.601562-5.898438l-42.664063-85.335937c-1.210937-2.425781-1.457031-5.230469-.675781-7.828125l31.222656-104.039062-31.382812-146.65625c-.882813-3.761719.332031-7.707032 3.179687-10.3125 2.847656-2.609376 6.878906-3.476563 10.546875-2.265626 3.667969 1.210938 6.390625 4.304688 7.128906 8.09375l32 149.335938c.378906 1.769531.304688 3.601562-.214844 5.332031l-30.78125 102.613281 40.769532 81.558594c1.632812 3.300782 1.449218 7.210938-.488282 10.34375-1.941406 3.136719-5.351562 5.046875-9.039062 5.058594zm0 0"/><path d="m202.664062 298.667969c-3.28125 0-6.378906-1.515625-8.402343-4.101563-2.019531-2.589844-2.738281-5.964844-1.941407-9.144531l32-128.003906c1.601563-5.5 7.265626-8.75 12.824219-7.363281 5.558594 1.386718 9.027344 6.917968 7.859375 12.527343l-23.871094 95.554688 49.257813-42.222657c4.492187-3.558593 10.996094-2.933593 14.726563 1.421876 3.730468 4.355468 3.347656 10.878906-.859376 14.769531l-74.667968 64.003906c-1.929688 1.65625-4.386719 2.5625-6.925782 2.558594zm0 0"/><path d="m277.332031 416c-2.308593.003906-4.554687-.746094-6.398437-2.132812l-85.332032-64c-3.308593-2.46875-4.890624-6.625-4.0625-10.667969l6.800782-34.011719-35.050782 14.011719c-3.554687 1.484375-7.628906.941406-10.667968-1.425781-3.035156-2.367188-4.566406-6.1875-3.992188-9.996094.570313-3.808594 3.148438-7.011719 6.746094-8.386719l53.335938-21.332031c3.648437-1.460938 7.800781-.796875 10.816406 1.726562 3.011718 2.523438 4.394531 6.5 3.59375 10.347656l-9.386719 46.699219 80 59.96875c3.671875 2.753907 5.171875 7.550781 3.714844 11.90625-1.449219 4.355469-5.527344 7.292969-10.117188 7.292969zm0 0"/></svg>