<svg height="682pt" viewBox="-21 -21 682.66679 682" width="682pt" xmlns="http://www.w3.org/2000/svg"><path d="m607.996094 555h-575.996094c-5.890625 0-10.667969-4.773438-10.667969-10.667969v-501.332031c0-13.867188 0-42.667969 21.332031-42.667969h554.667969c21.335938 0 21.335938 28.800781 21.335938 42.667969v501.332031c0 5.894531-4.777344 10.667969-10.671875 10.667969zm-565.332032-21.332031h554.667969v-490.667969c.390625-7.167969-.28125-14.359375-1.996093-21.332031h-550.671876c-1.714843 6.972656-2.390624 14.164062-2 21.332031zm0 0"/><path d="m618.667969 640.332031h-597.335938c-11.78125 0-21.332031-9.550781-21.332031-21.332031v-32.003906c0-1.648438.382812-3.285156 1.117188-4.765625l21.332031-42.664063c1.8125-3.617187 5.507812-5.902344 9.550781-5.898437h575.996094c4.0625-.023438 7.789062 2.265625 9.601562 5.898437l21.335938 42.664063c.71875 1.484375 1.085937 3.117187 1.066406 4.765625v32.003906c0 11.78125-9.550781 21.332031-21.332031 21.332031zm-597.335938-50.816406v29.484375h597.335938v-29.484375l-17.261719-34.515625h-562.8125zm0 0"/><path d="m64 597.667969h-53.332031c-5.894531 0-10.667969-4.777344-10.667969-10.671875 0-5.886719 4.773438-10.664063 10.667969-10.664063h53.332031c5.890625 0 10.667969 4.777344 10.667969 10.664063 0 5.894531-4.777344 10.671875-10.667969 10.671875zm0 0"/><path d="m629.332031 597.667969h-522.667969c-5.886718 0-10.664062-4.777344-10.664062-10.671875 0-5.886719 4.777344-10.664063 10.664062-10.664063h522.667969c5.890625 0 10.667969 4.777344 10.667969 10.664063 0 5.894531-4.777344 10.671875-10.667969 10.671875zm0 0"/><path d="m607.996094 203h-575.996094c-5.890625 0-10.667969-4.777344-10.667969-10.664062 0-5.894532 4.777344-10.667969 10.667969-10.667969h575.996094c5.894531 0 10.671875 4.773437 10.671875 10.667969 0 5.886718-4.777344 10.664062-10.671875 10.664062zm0 0"/><path d="m394.667969 555c-5.894531 0-10.667969-4.773438-10.667969-10.667969v-351.996093c0-5.894532 4.773438-10.667969 10.667969-10.667969 5.886719 0 10.664062 4.773437 10.664062 10.667969v351.996093c0 5.894531-4.777343 10.667969-10.664062 10.667969zm0 0"/><path d="m352 512.335938h-277.332031c-5.894531 0-10.667969-4.777344-10.667969-10.671876v-266.664062c0-5.890625 4.773438-10.667969 10.667969-10.667969h277.332031c5.890625 0 10.664062 4.777344 10.664062 10.667969v266.664062c0 5.894532-4.773437 10.671876-10.664062 10.671876zm-266.667969-21.335938h256v-245.335938h-256zm0 0"/><path d="m565.332031 160.332031h-490.664062c-5.894531 0-10.667969-4.773437-10.667969-10.664062v-96c0-5.894531 4.773438-10.667969 10.667969-10.667969h490.664062c5.894531 0 10.667969 4.773438 10.667969 10.667969v96c0 5.890625-4.773438 10.664062-10.667969 10.664062zm-480-21.332031h469.335938v-74.667969h-469.335938zm0 0"/><path d="m565.332031 512.335938h-128c-5.890625 0-10.667969-4.777344-10.667969-10.671876v-266.664062c0-5.890625 4.777344-10.667969 10.667969-10.667969h128c5.894531 0 10.667969 4.777344 10.667969 10.667969v266.664062c0 5.894532-4.773438 10.671876-10.667969 10.671876zm-117.335937-21.335938h106.671875v-245.335938h-106.671875zm0 0"/><path d="m117.332031 309.667969c-4.316406-.003907-8.203125-2.601563-9.851562-6.585938-1.652344-3.984375-.738281-8.574219 2.308593-11.621093l10.667969-10.667969c4.1875-4.042969 10.839844-3.984375 14.953125.132812 4.117188 4.109375 4.175782 10.765625.132813 14.949219l-10.671875 10.664062c-1.996094 2.003907-4.710938 3.125-7.539063 3.128907zm0 0"/><path d="m117.332031 373.667969c-4.316406 0-8.203125-2.601563-9.851562-6.585938-1.652344-3.984375-.738281-8.574219 2.308593-11.621093l85.335938-85.335938c4.1875-4.039062 10.835938-3.984375 14.953125.128906 4.117187 4.117188 4.167969 10.769532.132813 14.953125l-85.339844 85.335938c-1.996094 1.996093-4.710938 3.125-7.539063 3.125zm0 0"/></svg>