<?xml version="1.0" ?><!DOCTYPE svg  PUBLIC '-//W3C//DTD SVG 1.1//EN'  'http://www.w3.org/Graphics/SVG/1.1/DTD/svg11.dtd'><svg height="100px" style="enable-background:new 0 0 100 100;" version="1.1" viewBox="0 0 100 100" width="100px" xml:space="preserve" xmlns="http://www.w3.org/2000/svg" xmlns:xlink="http://www.w3.org/1999/xlink"><g id="Circle"/><g id="Skin"><g><path d="M69.607,78.914c-0.063,0-0.127-0.021-0.18-0.063c-0.114-0.094-0.138-0.259-0.054-0.38    c0.163-0.238,0.336-0.497,0.49-0.737c-0.016-0.011-0.031-0.022-0.044-0.036c-0.111-0.11-0.111-0.29,0-0.4    c0.035-0.036,0.078-0.06,0.123-0.072c0.098-0.085,0.323-0.336,0.497-0.547c0.051-0.062,0.126-0.099,0.205-0.103    c0.082-0.002,0.158,0.025,0.214,0.083c0.055,0.054,0.101,0.1,0.099,0.197c0.329-0.317,0.361-0.311,0.454-0.314    c0.09,0,0.175,0.043,0.229,0.115c0,0,0.537,0.725,0.833,1.118c0.155-0.156,0.375-0.378,0.597-0.603    c0.946-0.954,0.946-0.954,1.071-0.954l0.001,0.283l-0.2,0.2l0.2-0.2l0.183,0.217c-0.058,0.052-0.458,0.456-0.852,0.854    c-1.013,1.022-1.012,1.023-1.218,0.844c-0.031-0.029-0.056-0.054-0.884-1.17c-0.326,0.319-0.976,0.979-1.562,1.583    C69.756,78.886,69.682,78.914,69.607,78.914z" style="fill:#CCCCCC;"/><path d="M76.05,53.436c-0.075,0-0.147-0.029-0.2-0.082c-0.153-0.151-0.231-0.229,0.807-1.576    c-0.023-0.007-0.046-0.016-0.068-0.027c-1.498,1.55-1.63,1.552-1.758,1.555c-0.079-0.001-0.161-0.032-0.216-0.087    c-0.157-0.156-0.503-0.502,2.748-5.923c-4.796,4.881-4.892,4.882-5.03,4.883c-0.066,0.017-0.148-0.029-0.203-0.082    c-0.198-0.201-0.257-0.259,4.891-8.07c-2.863,3.118-6.487,6.904-7.21,6.925c-0.001,0-0.003,0-0.005,0    c-0.078,0-0.21-0.049-0.264-0.104c-0.111-0.11-0.111-0.29,0-0.4c0.073-0.074,0.182-0.098,0.273-0.074    c0.795-0.312,5.33-5.068,9.27-9.469c0.1-0.111,0.268-0.126,0.384-0.036c0.118,0.091,0.146,0.257,0.063,0.381    c-1.873,2.834-4.414,6.708-5.845,8.948c1.392-1.389,3.462-3.491,5.012-5.073c0.101-0.104,0.263-0.114,0.377-0.025    s0.143,0.25,0.066,0.373c-1.612,2.596-3.259,5.461-3.847,6.777c0.503-0.492,1.349-1.362,2.623-2.729    c0.088-0.094,0.142-0.151,0.262-0.153c0.081-0.016,0.149,0.028,0.202,0.08l0.771-0.771c0.105-0.108,0.277-0.111,0.391-0.009    c0.111,0.101,0.125,0.272,0.029,0.39c-0.851,1.04-1.753,2.165-2.394,2.988l0.161,0.214c-0.059,0.049-0.293,0.292-0.527,0.533    c-0.629,0.646-0.629,0.646-0.762,0.646C76.051,53.436,76.05,53.436,76.05,53.436z" style="fill:#CCCCCC;"/><path d="M63.181,56.038c-0.069,0-0.139-0.025-0.193-0.076c-0.111-0.104-0.121-0.278-0.021-0.394    l1.659-1.904c-1.008,0.907-1.761,1.454-2.122,1.466c-0.167,0.002-0.276-0.065-0.336-0.125c-0.316-0.315-0.507-0.506,8.276-11.193    c0.032-0.04,0.064-0.079,0.097-0.118c-2.733,2.668-7.409,7.547-10.613,10.958c-0.109,0.114-0.288,0.118-0.401,0.013    c-0.114-0.107-0.119-0.287-0.013-0.401c4.573-4.866,12.358-13.031,13.122-13.043c0.09-0.009,0.178,0.038,0.231,0.092    c0.201,0.2,0.201,0.2-1.984,2.86c-2.201,2.678-7.087,8.623-8.073,10.256c1.15-0.702,4.77-4.211,11.932-12.375    c0.047-0.053,0.084-0.095,0.115-0.13l0.046-0.053l0.002,0.001c0.087-0.09,0.117-0.096,0.203-0.099    c0.109-0.004,0.217,0.06,0.265,0.162c0.049,0.102,0.032,0.223-0.042,0.308l-6.52,7.482l7.355-7.354c0.109-0.11,0.291-0.111,0.4,0    c0.111,0.11,0.111,0.29,0,0.401L63.381,55.955C63.326,56.011,63.253,56.038,63.181,56.038z" style="fill:#CCCCCC;"/><path d="M72.443,39.415c-0.068,0-0.137-0.025-0.191-0.074c-0.115-0.106-0.123-0.285-0.018-0.401    c3.024-3.312,10.161-11.018,11.085-11.038c0.082-0.01,0.198,0.043,0.254,0.099c0.31,0.308,0.055,0.788-1.823,3.304    c2.175-2.363,4.682-4.945,5.268-4.962c0.073,0,0.211,0.046,0.267,0.102c0.108,0.088,0.926,0.515,1.718,0.908    c1.192-1.446,2.653-3.086,3.164-3.112c0.092,0.006,0.22,0.046,0.275,0.103c0.126,0.125,0.113,0.223,0.021,0.984    c-0.011,0.092-0.024,0.203-0.038,0.316l0.882-0.881c0.109-0.11,0.291-0.111,0.4,0c0.111,0.11,0.111,0.29,0,0.401l-1.395,1.394    c-0.053,0.053-0.125,0.083-0.2,0.083l0,0c-0.075,0-0.147-0.03-0.201-0.084c-0.14-0.141-0.13-0.325-0.011-1.298    c0.01-0.081,0.021-0.171,0.031-0.259c-0.562,0.48-1.695,1.741-2.633,2.887c-0.084,0.101-0.226,0.133-0.345,0.075    c-0.611-0.301-1.603-0.798-1.957-1.031c-0.787,0.378-4.724,4.59-7.352,7.555c-0.052,0.059-0.125,0.093-0.203,0.095    c-0.069,0.002-0.154-0.027-0.209-0.083c-0.292-0.292-0.068-0.686,1.843-3.237c0.562-0.75,1.326-1.771,1.741-2.421    c-1.771,1.475-6.911,6.923-10.164,10.484C72.597,39.383,72.521,39.415,72.443,39.415z" style="fill:#CCCCCC;"/><path d="M44.173,55.481c-0.072,0-0.145-0.027-0.2-0.083c-0.075-0.074-0.114-0.177-0.11-0.29    c0.02-0.56,1.762-2.266,3.293-3.66c0.889-1.001,1.475-1.514,1.746-1.527c0.045-0.009,0.082,0.007,0.125,0.021l1.303-1.303    c0.111-0.109,0.292-0.111,0.401,0c0.111,0.111,0.111,0.291,0,0.401l-6.357,6.358C44.318,55.454,44.246,55.481,44.173,55.481z" style="fill:#CCCCCC;"/><path d="M62.656,79.087c-0.077,0-0.182-0.041-0.235-0.095c-0.332-0.332-0.045-0.756,2.367-3.493    c0.732-0.83,1.723-1.954,2.28-2.698c-0.707,0.649-2.075,2.046-4.715,4.975c-0.411,0.456-0.411,0.456-0.535,0.459    c-0.1,0.008-0.204-0.053-0.256-0.146c-0.051-0.092-0.047-0.206,0.012-0.294c0.711-1.068,1.606-2.419,2.341-3.537l-2.626,2.626l0,0    l-0.001,0.001c-0.109,0.111-0.289,0.11-0.4,0.001c-0.11-0.11-0.111-0.29-0.001-0.4c0.137-0.138,0.273-0.276,0.41-0.416    c-0.064-0.019-0.123-0.052-0.171-0.1c-0.106-0.106-0.111-0.277-0.011-0.39c4.585-5.113,9.161-10.78,9.973-12.651l-6.597,6.598    c-1.05,1.064-1.919,1.925-2.342,2.342c-0.111,0.108-0.289,0.11-0.4-0.003c-0.11-0.11-0.109-0.289,0.001-0.399l2.297-2.297    c2.338-2.373,4.506-4.684,5.828-6.247l-7.406,7.405c-0.107,0.109-0.284,0.112-0.396,0.005c-0.111-0.106-0.118-0.281-0.015-0.396    l8.784-9.677c-0.763,0.632-1.936,1.795-3.31,3.252c-1.39,1.66-3.344,3.88-6.078,6.854c-0.106,0.113-0.281,0.121-0.396,0.021    c-0.115-0.102-0.129-0.277-0.029-0.396c0.819-0.973,3.441-4.058,5.916-6.681c1.052-1.244,1.937-2.337,2.536-3.15l-6.75,6.749    c-0.109,0.111-0.291,0.111-0.4,0c-0.396-0.395,0.17-1.163,3.776-5.137c0.881-0.97,1.916-2.11,2.465-2.791    c-1.211,0.941-3.932,3.932-6.321,6.827c-0.097,0.115-0.27,0.135-0.389,0.047c-0.121-0.091-0.149-0.261-0.065-0.386    c1.83-2.712,4.38-6.517,5.543-8.305c-1.168,1.074-3.263,3.35-5.138,5.53c-0.052,0.061-0.125,0.096-0.204,0.099    c-0.083-0.007-0.155-0.026-0.211-0.083c-0.421-0.421,0.173-1.285,3.971-5.781c0.63-0.746,1.394-1.648,2.139-2.559    c-3.867,3.802-9.266,8.432-10.179,9.211c-0.021,0.018-0.044,0.032-0.067,0.043l-1.324,1.323c-0.053,0.054-0.125,0.083-0.2,0.083    h-0.001c-0.076,0-0.148-0.03-0.201-0.085c-0.077-0.078-0.126-0.128,0.041-0.359l-0.039-0.039l0.5-0.501    c0.52-0.563,1.471-1.532,3.159-3.25c1.555-1.629,3.251-3.394,4.855-5.035l-7.089,7.088c-0.109,0.111-0.291,0.111-0.4,0    c-0.063-0.062-0.103-0.102,0.001-0.399l-0.001-0.001l0.001-0.002c0.133-0.385,0.499-1.198,1.347-3.043l-1.276,1.275    c-2.87,3.199-4.33,4.751-4.988,4.986c-0.111,0.089-0.272,0.081-0.376-0.021c-0.007-0.008-0.015-0.016-0.021-0.023    c-0.013-0.01-0.024-0.02-0.035-0.031c-0.438-0.438,0.605-2.227,2.244-4.476c-1.555,1.591-2.895,2.826-3.32,2.839    c-0.095-0.005-0.219-0.049-0.274-0.104c-0.273-0.272-0.29-0.289,13.47-15.838c5.945-6.719,11.906-13.423,13.299-14.988    c-3.235,0.48-17.734,17.024-24.744,25.022c-4.507,5.143-4.542,5.145-4.766,5.151c-0.075,0.003-0.16-0.029-0.215-0.085    c-0.296-0.295-0.815-0.815,2.718-5.258c-4.346,4.906-7.146,7.738-8.309,7.78c-0.243,0.009-0.392-0.09-0.477-0.175    c-0.13-0.13-0.194-0.306-0.191-0.523c0.006-0.493,0.438-1.322,1.176-2.382c-2.993,2.95-5.07,4.901-5.335,4.903    c0,0-0.001,0-0.002,0c-0.075,0-0.16-0.034-0.213-0.088c-0.258-0.258,0.003-0.911,2.682-4.063    c-3.843,4.009-6.585,6.512-7.625,6.539c-0.235,0.008-0.364-0.086-0.441-0.163c-0.181-0.181-0.344-0.344,3.536-4.917l-3.405,3.404    c-0.088,0.088-0.224,0.107-0.333,0.05c-0.11-0.059-0.169-0.183-0.145-0.305c0.195-0.988,0.447-2.328,0.565-3.079    c-1.251,1.126-4.786,4.799-7.042,7.194c-0.107,0.113-0.281,0.12-0.396,0.017c-0.114-0.103-0.126-0.278-0.026-0.396    c1.131-1.323,2.622-3.1,3.819-4.578l-5.061,5.061c-0.106,0.108-0.279,0.111-0.391,0.009c-0.112-0.102-0.124-0.273-0.027-0.391    l2.108-2.535l-5.538,5.537c-0.111,0.111-0.291,0.111-0.401,0c-0.089-0.089-0.141-0.141,0.017-0.384l-0.017-0.017l0.091-0.092    c0.156-0.215,0.434-0.546,0.897-1.077l-2.13,2.131c-0.074,0.075-0.182,0.102-0.284,0.071c-0.1-0.031-0.175-0.114-0.195-0.218    c-0.147-0.759-0.338-1.62-0.47-2.092l-4.919,4.918c-0.109,0.108-0.284,0.11-0.395,0.006c-0.111-0.104-0.12-0.279-0.018-0.394    l0.398-0.45c-0.256-0.262-0.098-0.727,0.988-2.803l-4.282,4.282c-0.071,0.071-0.173,0.1-0.271,0.074    c-0.097-0.024-0.174-0.099-0.202-0.195c-0.249-0.853-0.539-1.783-0.715-2.27c-0.487,0.495-0.525,0.479-0.706,0.309    c-0.114-0.108-0.119-0.287-0.011-0.401c0.013-0.014,0.027-0.025,0.042-0.036c0.104-0.095,0.56-0.565,0.56-0.565    c0.053-0.056,0.102-0.106,0.204-0.086c0.075,0,0.147,0.029,0.2,0.082c0.05,0.05,0.195,0.195,0.835,2.351l5.131-5.131    c0.11-0.111,0.29-0.111,0.401,0c0.189,0.188,0.146,0.27-0.558,1.609c-0.211,0.401-0.517,0.981-0.76,1.487    c0.038-0.044,0.077-0.089,0.114-0.133c1.376-1.598,1.893-2.131,2.241-2.145c0.085-0.018,0.208,0.045,0.264,0.102    c0.007,0.007,0.014,0.015,0.021,0.023l1.345-1.345c0.053-0.054,0.125-0.083,0.201-0.083h0c0.075,0,0.147,0.03,0.201,0.083    c0.055,0.056,0.212,0.214,0.613,2.173l7.298-7.299c0.053-0.054,0.125-0.083,0.201-0.083c0,0,0,0,0,0c0.075,0,0.147,0.03,0.2,0.083    c0.09,0.09,0.147,0.147-0.004,0.396l0.004,0.004l-0.018,0.019c-0.106,0.168-0.301,0.418-0.632,0.812l4.021-4.021    c0.108-0.107,0.279-0.112,0.392-0.009c0.112,0.102,0.124,0.273,0.027,0.391l-2.108,2.535l3.216-3.216    c0.053-0.054,0.125-0.083,0.201-0.083c0,0,0,0,0,0c0.075,0,0.147,0.03,0.2,0.083c0.138,0.139,0.271,0.271-1.082,2.034    c2.246-2.249,2.426-2.233,2.535-2.23c0.076,0,0.162,0.034,0.215,0.088c0.119,0.119,0.184,0.184-0.375,3.068l8.31-8.31    c0.108-0.108,0.282-0.11,0.394-0.007c0.111,0.104,0.12,0.279,0.02,0.394c-2.965,3.384-7.598,8.779-8.496,10.089    c1.969-0.516,11.973-11.611,17.457-17.693c6.242-6.923,7.878-8.667,8.371-8.68c0.071,0,0.185,0.039,0.24,0.094    c0.243,0.243,0.243,0.243-5.182,6.179c-4.558,4.986-12.432,13.6-14.896,16.799c1.475-1.37,4.259-4.127,7.609-7.497    c5.832-6.662,15.491-15.905,17.006-17.348c0.111-0.106,0.289-0.104,0.396,0.005c0.108,0.11,0.109,0.286,0.002,0.397    c-4.916,5.068-11.606,11.933-16.977,17.325c-2.55,2.894-4.308,5.206-4.318,6.084c-0.001,0.057,0.009,0.099,0.026,0.116    c1.497-0.044,7.694-7.22,13.162-13.552c7.288-8.44,11.825-13.568,13.373-13.625c0.232-0.01,0.386,0.089,0.47,0.172    c0.11,0.111,0.111,0.29,0.001,0.4C58.487,48.676,48.115,60.188,47.652,62.394c0.665-0.691,2.326-2.588,4.198-4.725    c10.651-12.152,22.266-25.126,25.262-25.225c0.28-0.005,0.469,0.067,0.625,0.223c0.106,0.106,0.111,0.277,0.012,0.389    c-7.588,8.527-20.869,23.498-25.447,28.803c1.674-1.642,4.199-4.364,6.487-6.948c0.102-0.117,0.278-0.129,0.397-0.027    c0.117,0.102,0.131,0.278,0.031,0.397c-3.147,3.736-6.324,7.904-7.04,9.436l4.961-5.017c3.155-3.522,4.074-4.48,4.497-4.492    c0.002,0,0.004,0,0.005,0c0.078,0,0.191,0.044,0.245,0.098c0.11,0.11,0.111,0.289,0.001,0.399l-2.387,2.414    c-0.004,0.027-0.012,0.055-0.023,0.081c-0.446,0.97-1.022,2.229-1.452,3.174l20.273-20.272c0.109-0.11,0.291-0.11,0.4,0    c0.246,0.247,0.411,0.413-6.917,8.014c0.066,0.071,0.138,0.192,0.131,0.379c-0.011,0.253-0.227,0.653-0.6,1.158    c-0.56,1.138-2.162,3.139-5.12,6.641c-0.395,0.466-0.81,0.958-1.218,1.446c1.386-1.476,2.713-2.755,3.165-2.771    c0.101,0,0.209,0.033,0.282,0.106c0.191,0.188,0.229,0.226-3.461,5.714c1.679-1.857,3.458-3.646,4.119-3.677    c0.16-0.022,0.28,0.063,0.342,0.125c0.303,0.303,0.146,0.566-2.894,3.915c-0.442,0.487-0.954,1.051-1.454,1.612l5.302-5.301    c0.109-0.111,0.291-0.111,0.4,0c0.103,0.102,0.306,0.305-0.68,1.755c0.723-0.618,1.297-1.003,1.62-1.017    c0.186,0.001,0.302,0.068,0.366,0.134c0.107,0.106,0.111,0.278,0.01,0.391l-1.726,1.9l0.879-0.878c0.109-0.111,0.289-0.111,0.4,0    c0.054,0.053,0.117,0.148,0.116,0.298c0,0.179-0.153,0.483-0.421,0.881c0.092-0.023,0.199-0.001,0.272,0.074    c0.776,0.776-2.334,4.917-5.728,8.96c0.062,0.008,0.121,0.035,0.166,0.081c0.108,0.107,0.235,0.235-0.294,0.973    c0.07,0.071,0.116,0.119-0.013,0.389l0.011,0.011l-0.031,0.031c-0.18,0.359-0.634,1.072-1.639,2.593    c2.808-3.018,3.352-3.32,3.613-3.327c0.002,0,0.004,0,0.005,0c0.078,0,0.193,0.044,0.247,0.098    c0.396,0.396-0.191,1.175-2.737,4.064c-0.162,0.184-0.334,0.379-0.509,0.578c0.359-0.389,0.71-0.772,1.004-1.095    c1.79-1.96,1.873-2.017,2.066-2.021c0.003,0,0.005,0,0.007,0c0.075,0,0.155,0.032,0.209,0.085c0.25,0.25,0.072,0.476-1.082,1.945    c-0.028,0.036-0.058,0.073-0.087,0.11c0.247-0.209,0.315-0.211,0.374-0.213c0.09,0.008,0.163,0.032,0.217,0.086    c0.022,0.021,0.04,0.047,0.055,0.074l1.142,2.28c0.45-0.435,1.437-1.439,2.323-2.359c0.054-0.057,0.143-0.065,0.204-0.087    c0.075,0,0.147,0.029,0.2,0.083c0.206,0.205,0.137,0.288-0.526,1.078c-0.303,0.36-0.826,0.984-1.015,1.28    c0.018,0.09-0.008,0.187-0.078,0.256c-0.017,0.018-0.036,0.032-0.056,0.044c-0.013,0.013-0.026,0.024-0.041,0.035    c-0.113,0.078-0.264,0.074-0.359-0.023c-0.027-0.027-0.05-0.055-0.066-0.084c-0.533,0.52-0.583,0.508-0.674,0.515    c-0.075,0-0.149-0.03-0.202-0.084c-0.021-0.021-0.04-0.046-0.054-0.073l-1.157-2.311c-0.388,0.359-1.202,1.215-1.922,2.005    c-0.053,0.058-0.126,0.091-0.203,0.093c-0.107,0.016-0.152-0.027-0.207-0.083c-0.184-0.184-0.169-0.415,0.238-1.037    c-1.575,1.697-2.07,2.129-2.354,2.136C62.66,79.087,62.658,79.087,62.656,79.087z M70.719,50.555l-6.686,6.686    C67.086,54.438,69.6,51.957,70.719,50.555z M67.566,38.727c-1.922,1.208-6.354,6.225-10.679,11.219    c0.067-0.074,0.134-0.147,0.202-0.221C61.406,45.024,65.907,40.415,67.566,38.727z" style="fill:#CCCCCC;"/></g></g><g id="Your_Icon"><path d="M93.057,25.742c0.211-0.211,2.123-2.655,1.93-3.423c-0.049-0.195-0.192-0.347-0.381-0.404   c-0.4-0.119-0.851,0.164-2.068,1.026c-0.487,0.346-0.993,0.704-1.305,0.86c-0.289,0.144-0.795,0.445-1.359,0.782   c-0.768,0.458-2.198,1.31-2.493,1.36c-0.323,0-1.06,0.287-7.209,3.899c-0.376,0.221-0.647,0.381-0.767,0.449   c-0.764,0.436-6.432,4.111-7.028,4.51c-0.267,0.179-1.214,0.906-2.31,1.747c-1.274,0.979-3.201,2.46-3.424,2.584   c-0.139,0.046-0.463,0.198-1.127,0.511c-0.908,0.428-2.152,1.014-2.854,1.269l-1.271,0.457c-1.949,0.698-3.591,1.288-3.91,1.442   c-0.319,0.152-1.586,1.057-3.812,2.673l-0.84,0.609c-0.378,0.27-1.641,1.28-2.978,2.35c-1.165,0.932-2.486,1.989-2.702,2.133   c-0.292,0.195-1.095,1.109-2.906,3.221c-0.759,0.885-1.476,1.723-1.714,1.96c-0.392,0.392-1.086,0.9-1.758,1.394   c-0.351,0.257-0.701,0.515-1.016,0.76c-0.213,0.165-0.532,0.421-0.913,0.727c-1.241,0.994-3.316,2.658-4.257,3.207   c-1.234,0.721-5.563,2.781-6.26,2.981c-0.497,0.142-1.734,0.725-3.299,1.472c-0.564,0.271-1.064,0.51-1.362,0.643   c-1.028,0.455-4.728,3.008-5.339,3.519c-0.592,0.493-3.066,2.144-3.744,2.433c-0.833,0.357-2.007,0.842-2.572,1.029   c-0.034,0.012-0.25,0.066-1.179,0.066c-1.178,0-2.694-0.09-2.709-0.092c-0.105-0.009-0.214,0.022-0.304,0.082   c-0.328,0.219-1.223,0.99-1.584,1.475c-0.032,0.042-0.05,0.052-0.177,0.095c-0.313,0.104-0.664,0.271-0.849,0.896l-0.029,0.1   c-0.156,0.523-0.304,1.02-0.008,1.415c0.279,0.374,0.773,0.374,0.936,0.374c0.884,0,3.851-0.215,5.04-0.539   c0.432-0.118,0.841-0.137,1.236-0.154c0.59-0.027,1.2-0.057,1.741-0.441l0.497-0.358c0.71-0.515,1.682-1.219,2.5-1.71   c0.957-0.572,2.959-1.289,4.383-1.729c1.376-0.422,5.596-2.422,6.69-3.078c0.446-0.268,1.595-0.572,2.706-0.867   c1.3-0.346,2.644-0.702,3.348-1.113c0.985-0.574,2.279-1.029,3.319-1.395l0.675-0.239c0.364-0.132,0.993-0.328,1.716-0.554   c1.598-0.497,3.586-1.117,4.41-1.566c1.149-0.626,3.638-1.584,4.52-1.51c0.438,0.045,0.624,0.217,0.904,0.479   c0.239,0.223,0.512,0.478,0.956,0.644c0.727,0.272,1.225,0.295,1.658,0.222c0.689,0.204,2.699,0.335,4.803,0.335   c1.818,0,3.689-0.098,4.807-0.329c-0.031,0.104-0.072,0.206-0.137,0.318c-0.502,0.88-0.917,3.406-1.061,4.79   c-0.051,0.487-0.125,1.077-0.203,1.696c-0.174,1.373-0.368,2.928-0.368,3.892c0,0.239-0.007,0.476-0.013,0.702   c-0.032,1.154-0.063,2.25,0.768,2.917c0.855,0.688,1.852,0.821,2.812,0.946l0.103,0.015c0.339,0.045,0.628,0.06,0.862,0.06   c0.464,0,0.734-0.059,0.72-0.059h-0.001c0.025-0.003,1.104-0.117,1.98-0.02c0.145,0.015,0.289,0.021,0.434,0.021   c0.328,0,1.349-0.049,1.672-0.566c0.201-0.002,0.441,0,0.656,0.002c2.258,0.018,3.438-0.014,3.486-0.834   c0.041-0.681-0.625-1.281-1.979-1.785l-0.429-0.153c-0.691-0.242-1.849-0.647-2.48-1.042c-0.162-0.102-0.339-0.208-0.521-0.315   c-0.588-0.348-1.473-0.87-1.602-1.215c-0.146-0.394,0.455-1.882,0.743-2.599l0.114-0.284c0.258-0.642,0.808-1.422,1.339-2.173   c0.282-0.401,0.565-0.803,0.813-1.191c0.42-0.658,0.918-1.645,1.443-2.684c0.404-0.797,0.812-1.604,1.182-2.246   c0.819-1.438,1.131-2.596,1-3.748c-0.131-1.165-1.832-2.357-3.723-2.706c0.096-0.313,0.188-0.632,0.275-0.944   c0.082-0.287,0.146-0.51,0.188-0.63c0.211-0.635,0.547-2.062,0.542-3.116l0.13-0.902c0.215,0.353,0.539,0.755,0.999,1.043   c0.46,0.289,1.002,0.32,1.371,0.32c0.201,0,0.402-0.011,0.599-0.021c0.166-0.01,0.326-0.018,0.478-0.018   c0.252,0,0.366,0.028,0.416,0.055c0.146,0.072,0.349,0.266,0.546,0.453c0.445,0.424,0.948,0.902,1.598,0.902   c0.151,0,0.301-0.027,0.445-0.082c1.162-0.438,1.26-1.275,1.26-2.029c0-0.34-0.039-0.639-0.078-0.916   c-0.043-0.307-0.078-0.549-0.035-0.764c0.031-0.159,0.119-0.277,0.295-0.509c0.173-0.224,0.388-0.503,0.603-0.933   c0.494-0.987,0.696-2.654,0.681-3.471c-0.033-1.491-1.297-2.101-2.131-2.505c-0.154-0.074-0.298-0.143-0.416-0.211   c-0.769-0.439-1.334-0.689-2.43-0.448c-0.416,0.092-0.787-0.077-1.176-0.269c-0.258-0.127-0.523-0.258-0.818-0.308   c-0.172-0.03-0.377-0.017-0.588,0.026c0.186-0.324,0.382-0.715,0.611-1.172c0.188-0.379,1.273-1.04,1.992-1.478   c0.633-0.385,1.178-0.717,1.465-1.005c0.677-0.675,2.051-1.825,2.666-2.089c0.451-0.192,1.723-1.159,3.761-2.727   c1.122-0.863,2.183-1.677,2.692-2.018c1.101-0.733,2.322-1.524,3.055-1.837c0.195-0.084,0.645-0.068,1.074-0.033   c0.229,0.018,0.457,0.035,0.673,0.035c0.286,0,0.706-0.026,1.048-0.253c0.74-0.495,1.542-1.089,1.677-1.897   c0.048-0.283,0.011-0.483-0.06-0.645C93.037,25.761,93.046,25.752,93.057,25.742z M59.682,56.287c0-0.04,0-0.083-0.002-0.121   c-0.003-0.062-0.006-0.139-0.009-0.206c0.099-0.009,0.243-0.017,0.451-0.017c0.558,0,1.285,0.049,1.963,0.113   C61.189,56.118,60.27,56.217,59.682,56.287z M47.696,51.396c0.235-0.156,1.204-0.929,2.771-2.183   c1.268-1.015,2.578-2.063,2.934-2.317l0.849-0.613c0.177-0.128,0.401-0.292,0.644-0.466c0.125,1.234,0.431,4.121,0.652,4.855   c0.286,0.941,1.082,3.657,2.146,4.492c0.438,0.346,0.771,0.472,1.018,0.508c-0.021,0.164-0.023,0.338-0.016,0.535   c0.006,0.149,0.018,0.418-0.012,0.534c-0.1,0.055-0.238,0.146-0.395,0.256c-0.66,0.104-1.704,0.179-2.743-0.148   c-1.698-0.535-5.25-2.102-6.503-3.041c-0.868-0.651-1.583-1.39-1.945-1.787C47.383,51.701,47.609,51.462,47.696,51.396z    M43.894,63.715c-0.738,0.403-2.756,1.031-4.231,1.491c-0.742,0.231-1.387,0.433-1.76,0.567l-0.665,0.235   c-1.079,0.38-2.422,0.853-3.49,1.474c-0.589,0.345-1.924,0.699-3.103,1.013c-1.232,0.327-2.396,0.637-2.961,0.978   c-1.034,0.619-5.177,2.582-6.472,2.98c-1.548,0.477-3.569,1.205-4.601,1.824c-0.854,0.512-1.847,1.23-2.571,1.756l-0.491,0.354   c-0.304,0.219-0.705,0.235-1.212,0.26c-0.428,0.021-0.913,0.043-1.452,0.188c-1.068,0.291-3.905,0.504-4.779,0.504   c-0.047,0-0.084-0.002-0.113-0.006c0.019-0.129,0.083-0.347,0.133-0.513l0.03-0.102c0.055-0.187,0.064-0.189,0.216-0.24   c0.172-0.058,0.433-0.146,0.652-0.438c0.24-0.319,0.88-0.894,1.215-1.149c0.44,0.023,1.611,0.082,2.592,0.082   c1.007,0,1.325-0.062,1.49-0.117c0.766-0.256,2.342-0.928,2.65-1.06c0.77-0.33,3.329-2.032,3.987-2.582   c0.645-0.537,4.244-2.989,5.108-3.375c0.303-0.135,0.812-0.377,1.387-0.651c1.134-0.541,2.688-1.283,3.145-1.414   c0.817-0.233,5.292-2.381,6.485-3.078c1.003-0.586,3.034-2.213,4.377-3.289c0.376-0.301,0.69-0.555,0.9-0.719   c0.309-0.238,0.652-0.489,0.995-0.74c0.682-0.502,1.381-1.016,1.829-1.453c0.9,1.141,3.587,4.527,4.703,5.701   C46.524,62.486,44.709,63.271,43.894,63.715z M53.992,63.673c0.664-0.571,1.053-1.36,1.4-2.089   c0.271-0.562,0.525-1.094,0.883-1.493c1.099-1.229,2.556-2.321,2.91-2.498c0.142-0.071,0.241-0.172,0.315-0.288   c1.298-0.162,3.147-0.334,4.149-0.31c-0.135,0.312-0.28,0.625-0.41,0.841c-0.408,0.68-0.812,2.314-1.008,4.066   c-0.07,0.646-0.094,1.119-0.109,1.496C60.982,63.779,56.354,63.85,53.992,63.673z M67.584,78.701   c-0.975-0.11-2.137,0.012-2.254,0.029c-0.003,0-0.479,0.099-1.287-0.01l-0.104-0.013c-0.863-0.112-1.678-0.222-2.32-0.737   c-0.447-0.359-0.424-1.177-0.398-2.123c0.008-0.236,0.014-0.48,0.014-0.729c0-0.901,0.191-2.425,0.361-3.769   c0.079-0.627,0.153-1.225,0.205-1.718c0.17-1.631,0.586-3.789,0.936-4.401c0.324-0.568,0.342-0.987,0.371-1.687   c0.016-0.375,0.035-0.856,0.109-1.534c0.194-1.763,0.596-3.203,0.872-3.665c0.328-0.548,0.772-1.642,0.878-2.112   c0.141-0.143,0.192-0.366,0.115-0.551c-0.077-0.184-0.255-0.304-0.547-0.304c-0.061,0.001-0.131-0.002-0.225-0.015   c0.375-0.512,1.153-1.491,1.892-1.871c0.746-0.383,2.479-0.758,3.344-0.93c-0.103,0.67-0.267,1.326-0.396,1.715   c-0.043,0.127-0.111,0.365-0.198,0.67c-0.289,1.011-0.968,3.378-1.479,3.966c-0.621,0.708-1.32,2.194-1.83,3.28   c-0.129,0.273-0.24,0.514-0.33,0.689c-0.021,0.041-0.028,0.096-0.047,0.141c-0.048,0.067-0.072,0.148-0.08,0.233   c-0.254,0.795-0.258,1.866-0.244,2.925l0.006,0.682c0,0.787-0.274,1.673-0.566,2.611c-0.171,0.549-0.348,1.117-0.467,1.674   c-0.118,0.55-0.296,1.175-0.471,1.789c-0.301,1.056-0.586,2.053-0.586,2.703c0,0.969,0.108,1.342,0.129,1.406   c0.048,0.141,0.154,0.253,0.291,0.307c0.08,0.031,1.979,0.766,3.104,0.766c0.6,0,1.316,0.297,1.844,0.583   C68.037,78.723,67.807,78.727,67.584,78.701z M72.366,58.98c0.104,0.933-0.166,1.901-0.878,3.146   c-0.375,0.656-0.79,1.479-1.203,2.291c-0.492,0.975-1.002,1.98-1.396,2.6c-0.238,0.375-0.513,0.765-0.787,1.151   c-0.563,0.799-1.146,1.626-1.447,2.377l-0.112,0.279c-0.586,1.452-1.017,2.618-0.753,3.317c0.253,0.668,1.15,1.201,2.021,1.717   c0.176,0.104,0.349,0.205,0.504,0.304c0.725,0.452,1.898,0.864,2.677,1.137l0.409,0.146c0.629,0.234,1.002,0.47,1.189,0.629   c-0.576,0.09-1.771,0.08-2.343,0.076c-0.479-0.006-0.797-0.006-1.017,0.009c-0.543-0.365-1.752-1.028-2.85-1.028   c-0.673,0-1.857-0.375-2.49-0.604c-0.021-0.174-0.045-0.459-0.045-0.887c0-0.514,0.277-1.488,0.547-2.435   c0.182-0.636,0.365-1.281,0.488-1.853c0.109-0.513,0.279-1.06,0.443-1.588c0.3-0.968,0.611-1.967,0.611-2.902L65.93,66.17   c-0.012-0.859-0.021-1.806,0.135-2.449l0.021-0.006c0.999-0.208,1.857-0.413,2.268-0.82c0.192-0.193,0.192-0.508,0-0.701   c-0.193-0.19-0.506-0.19-0.699,0c-0.15,0.152-0.65,0.298-1.112,0.408c0.459-0.975,1.146-2.438,1.674-3.039   c0.388-0.441,0.763-1.377,1.113-2.445C71.036,57.391,72.307,58.439,72.366,58.98z M72.796,41.837c0.002,0,0.004,0,0.006,0   c0.151,0.025,0.343,0.119,0.542,0.218c0.461,0.228,1.123,0.507,1.829,0.349c0.75-0.167,1.017-0.063,1.724,0.34   c0.139,0.079,0.302,0.158,0.479,0.244c0.257,0.125,0.493,0.246,0.704,0.376c-0.001,0.032-0.007,0.055,0.004,0.101   c0.147,0.632,0.521,2.298-0.731,3.238c-1.254,0.94-3.134,1.254-3.134,1.254s1.044,1.358,0,1.712   c-0.724,0.246-2.036,0.151-2.782,0.069c-0.059-0.127-0.09-0.216-0.09-0.219c-0.021-0.067-0.059-0.131-0.107-0.183l-0.416-0.459   c-0.127-0.14-0.324-0.195-0.512-0.139c-0.183,0.056-0.315,0.213-0.344,0.402l-0.139,0.987c-0.523,0.391-1.305,0.874-1.879,0.79   c-0.939-0.14-2.193-0.245-2.193-1.603s0.312-2.716,1.254-3.656c0.215-0.216,0.467-0.407,0.725-0.577l-0.064,0.487   c0.018,0.002,0.148,0.02,0.348,0.02c0.487,0,1.366-0.102,1.908-0.765c0.373-0.455,0.358-0.866,0.348-1.165   c-0.01-0.311-0.019-0.535,0.457-0.982c0.076-0.071,0.146-0.129,0.211-0.185c0.101,0.008,0.201-0.01,0.291-0.063   C71.645,42.183,72.389,41.837,72.796,41.837z M92.355,25.043c-0.201,0.202-0.573,0.575-0.234,1.109c0,0,0.006,0.027-0.006,0.1   c-0.075,0.453-0.84,0.963-1.25,1.237c-0.154,0.103-0.631,0.092-1.096,0.055c-0.604-0.048-1.166-0.05-1.541,0.111   c-0.804,0.343-2.02,1.127-3.213,1.923c-0.537,0.358-1.611,1.183-2.748,2.056c-1.34,1.032-3.178,2.444-3.547,2.602   c-0.838,0.359-2.352,1.674-2.975,2.298c-0.205,0.205-0.752,0.538-1.28,0.86c-1.006,0.613-2.048,1.247-2.362,1.88   c-0.373,0.745-0.694,1.388-0.955,1.648c-0.164,0.165-0.297,0.347-0.4,0.502c-0.214,0.129-0.441,0.291-0.697,0.531   c-0.74,0.697-0.783,1.22-0.766,1.737c0.009,0.236,0.01,0.335-0.122,0.498c-0.935-0.021-3.368-0.121-4.453-0.622   c-0.896-0.414-2.078-0.993-2.787-1.343l1.075-0.386c0.744-0.271,2.011-0.867,2.938-1.303c0.51-0.24,0.903-0.428,1.021-0.468   c0.209-0.069,0.694-0.418,3.714-2.737c1.035-0.796,2.014-1.548,2.254-1.708c0.645-0.43,6.262-4.069,6.971-4.475   c0.121-0.069,0.396-0.231,0.777-0.455c4.092-2.404,6.37-3.671,6.708-3.763c0.409,0,1.142-0.393,3-1.5   c0.538-0.32,1.021-0.609,1.295-0.747c0.38-0.189,0.892-0.553,1.435-0.937c0.115-0.082,0.248-0.175,0.379-0.269   C93.113,24.084,92.632,24.769,92.355,25.043z" style="fill:#8C8C8C;"/></g><g id="Top"><path d="M70.776,50.746c0,0-0.208-0.712,0.193-1.013c0.249-0.187,0.332-0.134,0.718-0.062   s1.094,0.125,1.828,0.062c0.679-0.058,0.953-0.203,1.045-0.531c0.133-0.473-0.409-0.964-0.409-1.157s0.362-0.217,0.916-0.362   s1.156-0.41,1.855-0.795s0.78-0.577,1.015-1.124c0.226-0.527,0.241-1.185,0.191-1.793s-0.218-0.699,0.096-1.012   s0.41-0.482,0.627-0.362s0.619,0.445,0.836,0.854s0.444,0.875,0.203,2.562s-0.701,2.344-1.015,2.826s-0.479,0.497-0.454,0.955   s0.14,1.165,0.092,1.672s-0.05,1.089-0.701,1.547s-1.229,0.452-1.688,0.234s-0.744-0.455-0.985-0.769S74.688,52.047,74.453,52   c-0.411-0.082-0.467-0.023-1.094,0s-1.023,0.017-1.578-0.297s-0.644-0.499-0.788-0.644L70.776,50.746z" style="fill:#6F6F6F;"/><g><path d="M78.176,47.145c-0.072,0-0.145-0.028-0.2-0.083c-0.127-0.126-0.215-0.214,0.447-2.076    c-0.02-0.012-0.039-0.026-0.056-0.043c-0.111-0.11-0.111-0.29,0-0.401l0.385-0.384c0.094-0.095,0.24-0.111,0.353-0.039    c0.112,0.072,0.159,0.212,0.113,0.337c-0.185,0.501-0.373,1.041-0.518,1.48l0.486-0.486c0.109-0.11,0.291-0.111,0.4,0    c0.111,0.11,0.111,0.29,0,0.401l-1.211,1.21C78.321,47.117,78.248,47.145,78.176,47.145z" style="fill:#7C7C7C;"/><path d="M73.548,51.656c-0.075,0-0.147-0.029-0.2-0.083c-0.342-0.341,0.044-0.894,2.427-3.476    c0.15-0.163,0.307-0.332,0.454-0.494c-0.015-0.087,0.012-0.181,0.079-0.249l0.706-0.706c0.109-0.11,0.289-0.11,0.4,0    c0.217,0.216,0.197,0.287-0.811,1.385c0.072,0.002,0.146,0.033,0.197,0.085c0.111,0.11,0.111,0.29,0,0.401    c-0.032,0.032-0.07,0.055-0.11,0.068c-0.281,0.212-1.701,1.669-2.937,2.979C73.7,51.623,73.616,51.66,73.548,51.656z" style="fill:#7C7C7C;"/><path d="M76.064,53.629c-0.075,0-0.151-0.03-0.204-0.084c-0.154-0.154-0.154-0.154,0.445-1.427    c0.031-0.067,0.064-0.138,0.099-0.211c-0.759,0.774-0.828,0.778-0.934,0.771c-0.075,0-0.151-0.031-0.204-0.085    c-0.107-0.106-0.111-0.278-0.01-0.39l0.756-0.839c-0.009-0.014-0.018-0.028-0.025-0.043c-0.048-0.098-0.035-0.215,0.032-0.3    c0.679-0.858,1.383-1.78,1.917-2.514c-0.809,0.819-1.892,1.984-2.889,3.099c-0.068,0.077-0.174,0.109-0.274,0.088l-2.685-0.615    c-0.534,0.55-0.542,0.55-0.669,0.551c-0.001,0-0.002,0-0.003,0c-0.104,0-0.2-0.057-0.249-0.148    c-0.011-0.019-0.019-0.038-0.023-0.058c-0.013-0.01-0.024-0.02-0.036-0.03c-0.11-0.111-0.111-0.29-0.001-0.401    c0.315-0.316,0.492-0.494,0.603-0.593l0.001-0.002v0c0.139-0.126,0.168-0.126,0.235-0.126l0,0c0.104,0,0.2,0.058,0.25,0.15    c0.019,0.035,0.029,0.072,0.032,0.109l2.509,0.574c3.786-4.229,4.194-4.241,4.329-4.245c0.05-0.003,0.181,0.036,0.236,0.092    c0.12,0.12,0.23,0.23-0.422,1.208c0.084-0.085,0.153-0.153,0.211-0.207l0.055-0.061l0.006,0.005    c0.188-0.166,0.232-0.137,0.361-0.051c0.068,0.046,0.114,0.119,0.124,0.201s-0.016,0.164-0.071,0.225l-1.97,2.183    c0.044,0.141-0.083,0.425-0.638,1.605c0.105-0.057,0.238-0.047,0.33,0.04c0.115,0.105,0.122,0.285,0.016,0.4    c-1.036,1.124-1.099,1.126-1.234,1.128C76.068,53.629,76.066,53.629,76.064,53.629z" style="fill:#7C7C7C;"/></g><path d="M70.578,52.5c0,0,0.025-0.754,0.052-1.025s0.198-0.584,0.104-0.818s-0.25-0.516-0.531-0.531   s-0.25-0.125-0.531,0.062s-0.719,0.484-1.078,0.594s-0.953,0.094-1.531-0.078c-0.734-0.219-1.031-0.438-1.188-0.906   s-0.078-1.328,0.141-2.234c0.199-0.826,0.688-1.406,0.844-1.625s0.469-0.531,0.797-0.781s0.578-0.234,1.062-0.484   s0.444-0.482,0.444-0.482s-1.507-0.034-2.257-0.159s-1.672-0.234-2.531-0.656s-1.578-0.734-2.172-1.047s-1.375-0.797-1.375-0.797   s-1.703,0.609-2.156,0.781s-1.016,0.344-1.281,0.484s-2.625,1.844-2.625,1.844s0.031,1.578,0.25,3.219s0.312,2.484,0.672,3.609   s0.562,1.734,0.891,2.328s0.516,0.953,0.859,1.297s0.719,0.469,0.969,0.562s0.844,0.25,1.469,0.312   c0.452,0.045,2.014,0.082,2.21,0.088s0.853,0.037,1.274-0.072s0.656-0.234,0.891-0.547s0.906-1.109,1.328-1.469   s0.766-0.547,1.484-0.766s1.266-0.344,1.703-0.422L70.578,52.5z" style="fill:#848484;"/><g><path d="M64.369,54.429c-0.076,0-0.163-0.034-0.216-0.087c-0.111-0.11-0.112-0.29-0.002-0.4    c0.04-0.041,0.089-0.066,0.141-0.078c0.127-0.107,0.434-0.461,0.643-0.702c0.615-0.707,0.752-0.847,0.94-0.854    c0.071-0.007,0.166,0.032,0.223,0.088c0.11,0.109,0.125,0.124-0.011,0.693c0.243-0.246,0.523-0.531,0.789-0.802    c1.999-2.031,1.999-2.031,2.151-2.032c0.001,0,0.001,0,0.001,0c0.017,0,0.032,0.001,0.047,0.004    c0.61-0.623,0.617-0.63,0.764-0.619c0.076,0,0.15,0.031,0.203,0.085c0.101,0.101,0.11,0.26,0.023,0.373l-0.757,0.979    c0.042,0.052,0.062,0.121,0.077,0.422c1.957-1.983,1.995-1.972,2.111-1.988l-0.001,0.284l-0.203,0.197l0.203-0.197l0.173,0.224    c-0.12,0.102-1.499,1.492-2.34,2.346c-0.081,0.081-0.201,0.107-0.306,0.064c-0.105-0.041-0.177-0.142-0.18-0.255    c-0.003-0.093-0.006-0.189-0.01-0.284l-0.694,0.694c-0.105,0.106-0.275,0.11-0.388,0.013c-0.089-0.079-0.118-0.202-0.079-0.31    c-0.135,0.138-0.268,0.272-0.393,0.399c-1.547,1.572-1.547,1.572-1.685,1.572c-0.104-0.016-0.152-0.03-0.207-0.087    c-0.105-0.111-0.116-0.122,0.021-0.69c-0.016,0.018-0.031,0.036-0.046,0.053c-0.635,0.731-0.79,0.889-0.985,0.896    C64.375,54.429,64.372,54.429,64.369,54.429z" style="fill:#939393;"/><path d="M58.103,56.718c-0.076,0-0.164-0.035-0.217-0.089c-0.386-0.386,0.234-1.561,1.347-3.073    c-0.315,0.3-0.5,0.41-0.646,0.416c-0.054-0.005-0.191-0.04-0.247-0.096c-0.102-0.102-0.111-0.263-0.022-0.375    c1.926-2.457,4.641-5.985,6.269-8.221c-2.438,2.437-6.411,6.413-6.469,6.469c-0.053,0.054-0.125,0.083-0.2,0.083l0,0    c-0.021,0-0.043-0.002-0.063-0.007c-1.347,1.336-2.453,2.309-2.834,2.32c-0.092-0.009-0.207-0.034-0.278-0.106    c-0.459-0.458,1.161-3.152,4.822-8.024c-2.921,3.164-3.771,3.967-4.158,3.975c-0.046-0.009-0.192-0.042-0.247-0.097    c-0.085-0.084-0.107-0.212-0.057-0.32l2.694-5.791l-2.447,2.447c-0.109,0.11-0.291,0.11-0.4,0    c-0.054-0.054-0.087-0.136-0.087-0.212c0.002-0.176,0.104-0.285,0.807-0.964c0.01-0.01,0.021-0.021,0.032-0.031    c-0.019-0.09,0.007-0.188,0.077-0.258l1.023-1.023c0.053-0.053,0.125-0.083,0.2-0.083l0,0c0.034,0,0.068,0.006,0.1,0.018    l1.429-1.428c0.097-0.098,0.251-0.111,0.362-0.032c0.113,0.079,0.153,0.228,0.095,0.352l-2.929,6.294    c0.953-0.904,2.593-2.688,3.782-3.983c2.546-2.771,2.791-2.993,3.026-2.998c0.067-0.021,0.162,0.032,0.218,0.086    c0.102,0.102,0.111,0.263,0.022,0.376c-3.613,4.602-7.312,9.72-7.854,11.1c0.301-0.206,0.779-0.63,1.385-1.211    c0.014-0.046,0.044-0.104,0.098-0.181l-0.017-0.017l0.122-0.122c0.298-0.369,0.966-1.057,2.328-2.446    c0.604-0.647,1.337-1.39,2.108-2.152c0.473-0.484,0.933-0.958,1.337-1.379c0.48-0.532,0.96-1.068,1.431-1.599    c0.052-0.059,0.125-0.093,0.203-0.095c0.064-0.001,0.123,0.017,0.173,0.052c0.212-0.199,0.417-0.392,0.612-0.574    c0.096-0.09,0.236-0.101,0.346-0.032c0.872-0.863,0.901-0.837,1.068-0.669c0.18,0.18,0.364,0.365-3.828,5.859    c1.923-2.198,3.17-3.489,3.772-3.511c0.168-0.006,0.274,0.064,0.334,0.125c0.109,0.109,0.111,0.286,0.004,0.397    c-3.886,4.041-7.785,8.581-8.362,10.009c1.11-0.979,4.32-4.331,6.355-6.506c0.088-0.093,0.229-0.117,0.341-0.056    c0.113,0.061,0.172,0.19,0.143,0.315c-0.253,1.074-0.608,2.627-0.811,3.577l1.596-1.595c0.084-0.086,0.21-0.106,0.315-0.059    c0.311-0.318,0.609-0.624,0.876-0.897c0.109-0.112,0.289-0.116,0.4-0.006c0.112,0.109,0.115,0.289,0.006,0.4    c-3.968,4.077-4.038,4.078-4.192,4.079c-0.001,0-0.002,0-0.002,0c-0.075,0-0.149-0.03-0.202-0.084    c-0.159-0.159-0.244-0.243,0.496-1.064c0.019-0.332,0.189-1.156,0.724-3.451c-5.792,6.159-6.162,6.165-6.306,6.168    C58.105,56.718,58.104,56.718,58.103,56.718z" style="fill:#939393;"/></g><path d="M46.297,51.344c0,0-1.484,1.703-1.891,2.172s-1.719,1.953-1.719,1.953s0.203,0.75,1.094,1.844   s2.484,3.125,2.938,3.656s0.891,0.875,1.188,1.281s0.453,0.891,0.453,0.891s0.219-0.094,0.625-0.016s0.422,0.141,0.672,0.375   s0.453,0.469,0.781,0.625s0.594,0.281,0.922,0.328s0.688,0.125,0.953,0.031s0.875-0.281,1.328-0.578s1.156-1.094,1.344-1.484   s0.641-1.422,1.078-1.984s0.938-1.078,1.422-1.5s0.893-0.78,1.297-1.062s0.688-0.359,0.781-0.594s0.119-0.994,0.119-0.994   s-0.229,0.119-0.588,0.244s-0.547,0.406-1.047,0.453s-1.266,0.188-2.141-0.078s-1.953-0.641-3.219-1.219s-1.979-0.871-2.812-1.375   s-2.047-1.594-2.547-2.062S46.297,51.344,46.297,51.344z" style="fill:#848484;"/><g><path d="M49.035,65.205c-0.072,0-0.145-0.027-0.2-0.083c-0.277-0.276-0.21-0.43,2.445-3.503    c0.361-0.419,0.771-0.893,1.18-1.373c-4.084,4.26-4.4,4.265-4.517,4.267c-0.098-0.004-0.168-0.034-0.222-0.089    c-0.053-0.053-0.093-0.155-0.093-0.23c0-0.266,0.42-0.795,2.002-2.409c-0.004-0.186,0.179-0.577,0.932-1.634    c-0.283,0.259-0.537,0.47-0.745,0.608l-0.293,0.294c-0.106,0.107-0.295,0.107-0.401,0c-0.055-0.055-0.103-0.183-0.101-0.261    c0.001-0.031,0.009-0.068,0.024-0.11c-0.028-0.235,0.107-0.86,0.797-2.962l-3.751,3.751c-0.111,0.111-0.291,0.111-0.401,0    c-0.214-0.214-0.218-0.218,1.224-2.413c0.31-0.472,0.713-1.085,1.07-1.647l-1.316,1.315c-0.054,0.054-0.117,0.087-0.202,0.083    c-0.075,0-0.147-0.03-0.201-0.084c-0.121-0.123-0.138-0.139,0.302-3.199c-3.017,3.1-3.088,3.1-3.233,3.101h0    c-0.076,0-0.151-0.031-0.204-0.086c-0.094-0.095-0.108-0.242-0.035-0.354c1.097-1.67,2.254-3.479,3.019-4.733l-0.666,0.665    c-0.11,0.111-0.29,0.111-0.401,0c-0.11-0.11-0.11-0.29,0-0.4l2.011-2.011c0.11-0.111,0.29-0.111,0.401,0    c0.174,0.175,0.307,0.308-2.481,4.628c0.611-0.62,1.27-1.294,1.79-1.83c0.085-0.089,0.22-0.113,0.329-0.057    c0.11,0.054,0.173,0.173,0.156,0.294c-0.13,0.904-0.312,2.2-0.418,3.016l2.071-2.071c0.105-0.107,0.294-0.107,0.401,0    c0.244,0.244,0.221,0.426-1.919,3.683c-0.002,0.003-0.004,0.007-0.006,0.01l2.909-2.909c0.093-0.094,0.236-0.11,0.351-0.041    c0.111,0.069,0.161,0.207,0.119,0.332c-0.333,0.985-0.673,2.045-0.898,2.805c1.093-1.224,3.016-3.007,4.329-4.193    c0.111-0.101,0.28-0.099,0.388,0.007c0.107,0.104,0.115,0.272,0.019,0.387c-0.151,0.179-0.327,0.385-0.521,0.61    c0.002,0.063-0.019,0.128-0.061,0.182c-0.522,0.662-1.06,1.355-1.561,2.012c0.921-0.937,1.499-1.412,1.727-1.419    c0.055-0.009,0.189,0.039,0.246,0.095c0.016,0.016,0.029,0.034,0.041,0.055c0.127-0.136,0.251-0.268,0.371-0.396    c0.054-0.059,0.128-0.099,0.207-0.09c0.075,0,0.147,0.029,0.2,0.083c0.352,0.352-0.077,1.049-2.666,4.076l2.309-2.308    c0.109-0.111,0.291-0.111,0.4,0c0.127,0.127,0.269,0.268-0.739,2.55c1.271-1.3,1.279-1.3,1.428-1.301l0.003,0.284l-0.2,0.2    l0.2-0.2l0.153,0.235c-0.115,0.09-0.92,0.913-1.452,1.457c-0.925,0.947-0.933,0.957-1.052,0.94c-0.097,0-0.187-0.049-0.238-0.13    c-0.053-0.082-0.06-0.186-0.019-0.273c0.42-0.899,0.852-1.877,1.132-2.578l-5.271,5.271C49.18,65.178,49.108,65.205,49.035,65.205    z" style="fill:#939393;"/></g></g></svg>