<svg width="57" height="59" viewBox="0 0 57 59" fill="none" xmlns="http://www.w3.org/2000/svg">
<path d="M55.0412 39.1158C54.616 39.1158 54.1555 39.104 53.7067 39.1276C53.624 39.1276 53.5059 39.3166 53.4941 39.4228C53.4705 39.7417 53.4823 40.0724 53.4823 40.3912C53.4705 40.8991 53.1871 41.2179 52.7501 41.2061C52.3368 41.1943 52.0651 40.8991 52.0533 40.403C52.0415 40.0251 52.0415 39.6354 52.0297 39.2575C52.0297 39.2339 52.0061 39.1985 51.9707 39.104C51.6518 39.104 51.3093 39.0804 50.955 39.1158C50.8724 39.1276 50.7661 39.3047 50.7543 39.4228C50.7307 39.7653 50.7543 40.096 50.7425 40.4385C50.7188 40.9109 50.4236 41.2179 50.0103 41.2061C49.6087 41.1943 49.3371 40.8991 49.3253 40.4385C49.3135 40.096 49.3489 39.7535 49.3135 39.4228C49.3017 39.3047 49.16 39.1276 49.0655 39.1158C48.4632 39.0922 47.8609 39.104 47.2468 39.104C47.1523 39.104 47.046 39.1158 46.8925 39.1276C46.8925 39.5409 46.8925 39.9307 46.8925 40.3322C46.8807 40.8754 46.6091 41.2061 46.1603 41.2061C45.7115 41.2061 45.4517 40.8872 45.4399 40.3322C45.4399 39.9779 45.4399 39.6236 45.4281 39.2693C45.4281 39.2457 45.4163 39.2103 45.3927 39.1394C44.6369 39.1394 43.8574 39.1394 43.0071 39.1394C43.0071 39.4937 43.0071 39.848 43.0071 40.2141C43.0071 40.8754 42.7473 41.2179 42.2631 41.2061C41.8026 41.1943 41.5545 40.8636 41.5545 40.2259C41.5545 35.7264 41.5545 31.2269 41.5664 26.7157C41.5664 26.2787 41.4955 26.0189 41.0231 25.889C40.6216 25.7709 40.2437 25.5347 39.8894 25.2985C39.169 24.8143 38.8265 24.1175 38.8029 23.2318C38.7557 21.1179 38.6848 19.0158 38.6258 16.9018C38.6258 16.831 38.6139 16.7483 38.6139 16.6775C38.6612 15.4492 38.0353 14.717 36.9252 14.3273C36.748 14.2683 36.5709 14.1856 36.3819 14.1266C36.3465 14.1148 36.2992 14.1148 36.1693 14.1029C36.2166 14.3982 36.252 14.6816 36.2992 14.965C36.5473 16.2995 36.8425 17.6222 37.0433 18.9685C37.1732 19.7952 37.2204 20.6455 37.2086 21.484C37.185 25.0505 37.8463 28.5225 38.3541 32.03C38.7675 34.8879 39.1926 37.7459 39.6178 40.6038C39.7122 41.2533 39.417 41.5722 38.7557 41.584C38.2597 41.584 37.7518 41.6076 37.2558 41.5722C36.8897 41.5486 36.7126 41.6431 36.6653 42.0564C36.3465 44.3829 36.004 46.6976 35.6615 49.0241C35.4017 50.7719 35.1655 52.5316 34.8939 54.2794C34.823 54.6927 34.9057 54.9525 35.2718 55.2005C35.9922 55.6847 36.6772 56.228 37.3739 56.7476C37.8227 57.0901 37.929 57.5271 37.6574 57.8813C37.3857 58.2356 36.9724 58.2592 36.5236 57.9168C35.5907 57.2318 34.6813 56.5468 33.7484 55.8619C33.4177 55.6139 33.2878 55.3305 33.3586 54.9053C33.9964 50.583 34.6223 46.2724 35.2482 41.9501C35.26 41.8556 35.2482 41.7493 35.2482 41.6194C34.3507 41.6194 33.4531 41.6194 32.4847 41.6194C32.4847 41.8084 32.4847 41.9974 32.4847 42.1745C32.4847 45.7292 32.4847 49.2839 32.4847 52.8504C32.4847 52.9803 32.4965 53.122 32.4847 53.252C32.4375 53.6653 32.1541 53.9251 31.7525 53.9251C31.3746 53.9251 31.0912 53.6653 31.044 53.2756C31.0321 53.1457 31.0321 53.0158 31.0321 52.874C31.0321 49.3312 31.0321 45.7883 31.0321 42.2454C31.0321 42.0564 31.0321 41.8674 31.0321 41.6313C30.0992 41.6313 29.2016 41.6313 28.2333 41.6313C28.3395 42.3871 28.434 43.1193 28.5403 43.8633C29.0835 47.5715 29.6268 51.2797 30.17 54.988C30.2173 55.3423 30.111 55.6257 29.8157 55.8383C28.8474 56.5468 27.9026 57.2672 26.9342 57.964C26.5209 58.2711 26.0957 58.2238 25.8359 57.8695C25.5879 57.5271 25.6706 57.0901 26.0721 56.7948C26.8161 56.2398 27.5483 55.6729 28.3159 55.1415C28.6112 54.9407 28.6702 54.7282 28.623 54.3975C28.2687 52.0592 27.9262 49.7327 27.5955 47.3944C27.3239 45.5521 27.0641 43.7216 26.7925 41.8793C26.7807 41.8084 26.7689 41.7375 26.7334 41.5958C26.1193 41.5958 25.4816 41.5958 24.8557 41.5958C24.0526 41.5958 23.8046 41.2888 23.9109 40.4975C24.6549 35.4548 25.4226 30.4003 26.1075 25.3457C26.2847 24.0703 26.2847 22.7476 26.2728 21.4604C26.261 19.6417 26.6626 17.8938 26.9814 16.1224C27.0995 15.4729 27.2176 14.8233 27.3357 14.162C26.1902 14.162 25.0092 15.1304 24.9502 16.2169C24.8321 18.1773 24.7376 20.1377 24.7376 22.0981C24.7376 23.8105 24.466 25.4638 23.7692 27.0109C23.0016 28.6997 22.1159 30.3412 21.2656 31.9828C20.9939 32.4906 20.557 32.6087 20.1673 32.3607C19.8012 32.1245 19.7421 31.6993 20.0255 31.2269C21.1356 29.3964 22.104 27.4951 22.8008 25.452C23.2732 24.0467 23.2732 22.6177 23.3086 21.1651C23.3559 19.3701 23.4503 17.575 23.5448 15.7681C23.6039 14.717 24.2062 13.973 25.0801 13.4888C25.7414 13.1227 26.4736 12.8511 27.1822 12.5677C27.9144 12.2843 28.6348 11.989 29.1662 11.3631C29.6622 10.7726 29.6622 10.1585 29.1544 9.57985C27.2649 7.4423 27.3711 3.63959 29.3552 1.66738C30.7605 0.273838 32.7327 0.273838 34.1381 1.66738C36.1339 3.63959 36.2284 7.43049 34.3388 9.56804C33.8428 10.1231 33.7956 10.7962 34.327 11.3041C34.7758 11.7292 35.319 12.0835 35.8741 12.3551C36.5118 12.674 37.2204 12.8629 37.8817 13.1582C39.2044 13.7487 39.9839 14.7289 40.0193 16.2287C40.0902 18.4843 40.1846 20.74 40.2673 22.9956C40.2909 23.8105 40.6806 24.2711 41.5664 24.4482C41.5664 24.1057 41.5545 23.7632 41.5664 23.4326C41.5782 22.9129 41.838 22.6413 42.3694 22.6413C46.8453 22.6413 51.3093 22.6413 55.7852 22.6413C56.3521 22.6413 56.5764 22.9129 56.5764 23.5625C56.5764 28.4871 56.5764 33.4235 56.5764 38.3482C56.5764 39.0095 56.5764 39.6709 56.5764 40.344C56.5764 40.8636 56.293 41.1825 55.8679 41.1825C55.4427 41.1825 55.1475 40.8754 55.1357 40.3558C55.1238 39.9779 55.1238 39.5882 55.112 39.2103C55.1002 39.2221 55.0766 39.1985 55.0412 39.1158ZM38.0589 40.1078C38.0589 40.0133 38.0707 39.9543 38.0589 39.8952C37.5747 36.624 37.0905 33.3645 36.6181 30.0932C36.3701 28.4044 36.1103 26.7038 35.945 25.0033C35.8151 23.6451 35.8269 22.2634 35.7678 20.8935C35.7442 20.3148 35.6733 19.748 35.6379 19.1693C35.6143 18.8386 35.4726 18.7323 35.1419 18.7323C32.8863 18.7441 30.6306 18.7441 28.3632 18.7323C28.0207 18.7323 27.879 18.8504 27.8672 19.1811C27.8199 20.0786 27.7372 20.9762 27.7018 21.8737C27.6428 23.0547 27.69 24.2474 27.5365 25.4048C27.0523 29.0422 26.4972 32.6795 25.9658 36.3051C25.7887 37.5569 25.5997 38.8087 25.4226 40.096C29.6504 40.1078 33.8546 40.1078 38.0589 40.1078ZM43.0308 31.2151C43.1489 31.1443 43.2079 31.1207 43.2433 31.0852C43.3378 30.9908 43.4205 30.8845 43.4913 30.7782C44.1645 29.9161 45.062 29.6208 46.1131 29.7389C46.9516 29.8334 47.5184 30.3412 48.0499 30.9435C48.6994 31.6875 49.6205 31.6403 50.211 30.8727C51.3448 29.3964 53.317 29.2902 54.5806 30.6601C54.7223 30.8136 54.864 30.9671 55.0766 31.1915C55.0766 28.7705 55.0766 26.4677 55.0766 24.1648C51.0377 24.1648 47.0342 24.1648 43.0308 24.1648C43.0308 26.5149 43.0308 28.8296 43.0308 31.2151ZM28.2333 17.2561C30.607 17.2561 32.9217 17.2561 35.2718 17.2561C35.071 16.1814 34.8585 15.154 34.6931 14.1266C34.6223 13.6424 34.4333 13.3117 34.0082 13.0401C33.6303 12.8039 33.2996 12.4496 33.0516 12.0835C32.7918 11.7056 32.6383 11.2568 32.4493 10.8435C31.9769 10.8435 31.5045 10.8435 30.9849 10.8435C30.7723 11.9654 30.0401 12.7212 29.1072 13.3235C29.0245 13.3826 28.9536 13.5007 28.9418 13.6069C28.6938 14.7997 28.4694 16.0043 28.2333 17.2561ZM29.2489 5.75352C29.2725 6.80458 29.5087 7.71392 30.1228 8.50517C31.0676 9.70975 32.4139 9.72156 33.3705 8.51698C34.5396 7.04077 34.5396 4.48989 33.3823 3.01368C32.4257 1.78547 31.0676 1.79728 30.111 3.0373C29.4733 3.86397 29.2489 4.80875 29.2489 5.75352ZM54.9821 34.8761C55.0294 34.8525 55.0766 34.8171 55.1238 34.7935C55.1238 34.203 55.1357 33.6125 55.112 33.0338C55.112 32.9393 54.9939 32.8212 54.9113 32.7504C54.4625 32.3961 53.9665 32.1009 53.565 31.6993C52.821 30.9671 51.9825 30.9908 51.3448 31.8174C50.3173 33.1637 48.3923 33.3173 47.1759 32.1363C46.9752 31.9473 46.798 31.723 46.5973 31.5222C46.0422 30.9908 45.1447 31.038 44.6841 31.6521C44.3062 32.1481 43.8456 32.5142 43.2788 32.7504C43.1725 32.7976 43.0308 32.9157 43.0308 32.9984C43.0071 33.6243 43.0189 34.2502 43.0189 34.8761C43.0544 34.8879 43.0898 34.8997 43.137 34.9116C43.2551 34.7817 43.3969 34.6517 43.5031 34.51C44.1527 33.6834 45.0148 33.3645 46.0422 33.4472C46.9043 33.518 47.4948 34.0022 48.038 34.6281C48.7112 35.3958 49.6324 35.3603 50.2346 34.5927C51.4038 33.0929 53.3642 33.022 54.6397 34.4274C54.7577 34.5691 54.864 34.7226 54.9821 34.8761ZM55.1238 37.6514C55.1238 37.3089 55.1475 37.0491 55.112 36.7893C55.0884 36.6594 54.9703 36.5295 54.864 36.435C54.4507 36.0925 53.9665 35.8091 53.5886 35.4312C52.8328 34.6636 52.0061 34.6872 51.3448 35.5257C50.6244 36.435 49.6796 36.8011 48.5222 36.5767C47.7664 36.435 47.235 35.9508 46.7508 35.3958C46.1013 34.6517 45.2274 34.7226 44.5896 35.4548C44.259 35.8445 43.8102 36.1988 43.3496 36.4114C42.7946 36.6712 43.0308 37.0845 43.0308 37.427C43.0308 37.8049 43.385 37.6396 43.5858 37.6396C47.235 37.6514 50.8724 37.6514 54.5216 37.6514C54.6987 37.6514 54.8758 37.6514 55.1238 37.6514Z" fill="#035D34"/>
<path d="M16.3409 32.9157C16.5181 33.6125 16.6716 34.2148 16.8487 34.8997C16.9078 34.8997 17.0613 34.9116 17.2148 34.9234C17.7699 34.9588 18.0533 35.2895 18.0061 35.8209C17.5219 41.0762 17.0377 46.3433 16.5535 51.5986C16.4354 52.8858 16.3173 54.1849 16.1992 55.4722C16.1402 56.0508 15.9276 56.2398 15.3371 56.2398C11.4753 56.2398 7.60178 56.2398 3.74002 56.2398C3.17316 56.2398 2.93696 56.0272 2.8661 55.4604C2.47639 52.2599 2.08667 49.0477 1.69695 45.8355C1.30723 42.5878 0.917511 39.3284 0.515983 36.0807C0.409696 35.254 0.492364 35.1123 1.18913 34.8761C1.37809 34.2502 1.55523 33.6952 1.72057 33.1401C1.74419 33.0574 1.72057 32.9511 1.67333 32.8685C0.693128 31.1088 1.86228 29.0776 3.86993 29.054C4.51946 29.0422 5.16899 29.054 5.85395 29.054C5.85395 28.8296 5.85395 28.6406 5.85395 28.4635C5.86576 27.0818 6.91682 26.0189 8.28674 26.0071C9.96371 25.9953 11.6525 25.9953 13.3295 26.0071C14.9474 26.0189 16.0811 27.4124 15.7386 28.9949C15.6678 29.3256 15.715 29.5145 15.963 29.7507C16.8724 30.6365 17.0023 32.089 16.3409 32.9157ZM11.558 42.6941C12.1485 42.6941 12.6917 42.6823 13.235 42.6941C13.6956 42.7059 13.979 42.9657 13.9908 43.3909C14.0026 43.8278 13.7192 44.1113 13.235 44.1231C12.8807 44.1349 12.5264 44.1467 12.1721 44.1231C11.747 44.0877 11.6525 44.253 11.6879 44.6545C11.8178 46.1662 11.9241 47.6896 12.0304 49.2012C12.0658 49.7327 11.8178 50.0515 11.3927 50.0988C10.9793 50.146 10.6487 49.8508 10.6132 49.3311C10.4951 47.9494 10.3889 46.5677 10.2944 45.186C10.2235 44.1349 10.2353 44.1349 9.19608 44.1349C8.68826 44.1349 8.18045 44.1349 7.6254 44.1349C7.81435 46.0835 7.99149 47.9258 8.16864 49.7681C8.2395 50.5593 8.33397 51.3506 8.39302 52.1418C8.44026 52.7441 8.20407 53.0748 7.7553 53.122C7.30654 53.1575 7.03491 52.8622 6.95225 52.2717C6.94044 52.1537 6.92863 52.0356 6.91682 51.9175C6.68062 49.4374 6.43262 46.9574 6.20824 44.4774C6.18462 44.2058 6.06652 44.1349 5.81852 44.1349C4.98003 44.1467 4.14155 44.1349 3.29125 44.1467C3.19677 44.1467 3.1023 44.1821 2.97239 44.2057C3.00782 44.5482 3.04325 44.8671 3.07868 45.186C3.45659 48.2447 3.8345 51.3034 4.18879 54.3621C4.23602 54.799 4.42498 54.8463 4.77927 54.8344C7.92064 54.8226 11.062 54.8344 14.2034 54.8344C14.8293 54.8344 14.8175 54.8344 14.8765 54.2203C15.03 52.4371 15.1836 50.6656 15.3489 48.8824C15.6914 45.186 16.0339 41.4777 16.3763 37.7813C16.4118 37.3325 16.4472 36.8838 16.4826 36.4232C14.664 36.4232 12.9161 36.4232 11.1329 36.4232C11.1329 36.6121 11.1211 36.7657 11.1329 36.931C11.1801 37.6396 11.2391 38.3482 11.2982 39.0449C11.3454 39.6708 11.3336 39.6708 11.9477 39.6708C12.6681 39.6708 13.3885 39.659 14.1207 39.6708C14.6521 39.6827 14.9474 39.9425 14.9474 40.3912C14.9474 40.84 14.6521 41.0998 14.1207 41.1116C13.6483 41.1234 13.1759 41.1116 12.7035 41.1116C12.3138 41.1116 11.9123 41.1116 11.4635 41.1116C11.4872 41.6549 11.5226 42.1391 11.558 42.6941ZM15.16 32.089C15.5142 31.2624 15.0655 30.542 14.1561 30.542C10.7313 30.542 7.31834 30.542 3.89354 30.542C3.81088 30.542 3.7164 30.542 3.63373 30.5538C2.91334 30.6601 2.53543 31.5458 2.93696 32.089C7.01129 32.089 11.062 32.089 15.16 32.089ZM9.01893 34.9234C10.9675 34.9234 12.9161 34.9116 14.8647 34.9352C15.2426 34.9352 15.3253 34.758 15.3017 34.451C15.2544 33.8723 14.8293 33.4944 14.2388 33.4826C12.739 33.4708 11.2273 33.4826 9.72751 33.4826C7.77892 33.4826 5.83033 33.4826 3.88173 33.4826C3.27944 33.4826 2.8661 33.8251 2.79525 34.3683C2.7362 34.8289 2.81887 34.9234 3.26763 34.9234C5.1808 34.9234 7.09396 34.9234 9.01893 34.9234ZM2.004 36.4114C2.13391 37.4506 2.24019 38.4426 2.38191 39.4347C2.39372 39.5291 2.60629 39.6354 2.72439 39.6472C3.18497 39.6708 3.63373 39.659 4.09431 39.659C4.61393 39.659 5.14537 39.659 5.72404 39.659C5.61775 38.5371 5.51147 37.4861 5.41699 36.4114C4.27145 36.4114 3.17316 36.4114 2.004 36.4114ZM10.8022 29.0894C11.7706 29.0894 12.7508 29.0894 13.7192 29.0894C14.2742 29.0894 14.4396 28.8886 14.3333 28.3336C14.2388 27.8494 13.8845 27.4951 13.3885 27.4833C11.6761 27.4597 9.97552 27.4597 8.26312 27.4833C7.6254 27.4951 7.23568 28.0147 7.28292 28.6524C7.30654 28.9477 7.41282 29.1012 7.74349 29.0894C8.77093 29.0776 9.78656 29.0894 10.8022 29.0894ZM6.86958 36.3878C6.96406 37.2735 7.03491 38.0883 7.11758 38.8914C7.20025 39.659 7.21206 39.659 7.9915 39.659C8.6056 39.659 9.2197 39.659 9.86923 39.659C9.78656 38.5844 9.72751 37.6042 9.63304 36.624C9.62123 36.5413 9.50313 36.3996 9.43227 36.3996C8.6056 36.376 7.77892 36.3878 6.86958 36.3878ZM6.00747 42.6941C5.97204 42.2453 5.93661 41.8674 5.913 41.4895C5.90119 41.2061 5.78309 41.0762 5.47604 41.088C4.95641 41.1116 4.4486 41.088 3.92897 41.088C3.49202 41.088 3.05506 41.088 2.62991 41.088C2.55905 42.6587 2.59448 42.6941 4.03526 42.6941C4.05888 42.6941 4.09431 42.6941 4.11793 42.6941C4.74384 42.6941 5.35794 42.6941 6.00747 42.6941ZM10.0936 42.6823C10.0582 42.1863 10.0346 41.7493 9.98733 41.3124C9.97552 41.2297 9.82199 41.1116 9.72751 41.0998C9.01893 41.088 8.31036 41.0762 7.60178 41.0998C7.5073 41.0998 7.35377 41.2651 7.35377 41.3478C7.35377 41.7021 7.40101 42.0564 7.46006 42.3989C7.47187 42.5052 7.60178 42.6587 7.67263 42.6587C8.46388 42.6941 9.25513 42.6823 10.0936 42.6823Z" fill="#035D34"/>
<path d="M16.3409 32.8567C16.5181 33.5534 16.6716 34.1557 16.8487 34.8407C16.9078 34.8407 17.0613 34.8525 17.2148 34.8643C17.7699 34.8997 18.0533 35.2304 18.0061 35.7618C17.5219 41.0171 17.0377 46.2842 16.5535 51.5395C16.4354 52.8268 16.3173 54.1259 16.1992 55.4131C16.1402 55.9918 15.9276 56.1807 15.3371 56.1807C11.4753 56.1807 7.60178 56.1807 3.74002 56.1807C3.17316 56.1807 2.93696 55.9682 2.8661 55.4013C2.47639 52.2009 2.08667 48.9887 1.69695 45.7764C1.30723 42.5288 0.917511 39.2693 0.515983 36.0217C0.409696 35.195 0.492364 35.0533 1.18913 34.8171C1.37809 34.1912 1.55523 33.6361 1.72057 33.0811C1.74419 32.9984 1.72057 32.8921 1.67333 32.8094C0.693128 31.0498 1.86228 29.0185 3.86993 28.9949C4.51946 28.9831 5.16899 28.9949 5.85395 28.9949C5.85395 28.7705 5.85395 28.5816 5.85395 28.4044C5.86576 27.0227 6.91682 25.9598 8.28674 25.948C9.96371 25.9362 11.6525 25.9362 13.3295 25.948C14.9474 25.9598 16.0811 27.3534 15.7386 28.9359C15.6678 29.2665 15.715 29.4555 15.963 29.6917C16.8724 30.5774 17.0023 32.03 16.3409 32.8567ZM11.558 42.6351C12.1485 42.6351 12.6917 42.6233 13.235 42.6351C13.6956 42.6469 13.979 42.9067 13.9908 43.3318C14.0026 43.7688 13.7192 44.0522 13.235 44.064C12.8807 44.0758 12.5264 44.0877 12.1721 44.064C11.747 44.0286 11.6525 44.1939 11.6879 44.5955C11.8178 46.1071 11.9241 47.6306 12.0304 49.1422C12.0658 49.6736 11.8178 49.9925 11.3927 50.0397C10.9793 50.087 10.6487 49.7917 10.6132 49.2721C10.4951 47.8904 10.3889 46.5086 10.2944 45.1269C10.2235 44.0758 10.2353 44.0758 9.19608 44.0758C8.68826 44.0758 8.18045 44.0758 7.6254 44.0758C7.81435 46.0244 7.99149 47.8667 8.16864 49.709C8.2395 50.5003 8.33397 51.2915 8.39302 52.0828C8.44026 52.6851 8.20407 53.0158 7.7553 53.063C7.30654 53.0984 7.03491 52.8032 6.95225 52.2127C6.94044 52.0946 6.92863 51.9765 6.91682 51.8584C6.68062 49.3784 6.43262 46.8984 6.20824 44.4183C6.18462 44.1467 6.06652 44.0758 5.81852 44.0758C4.98003 44.0877 4.14155 44.0758 3.29125 44.0877C3.19677 44.0877 3.1023 44.1231 2.97239 44.1467C3.00782 44.4892 3.04325 44.808 3.07868 45.1269C3.45659 48.1856 3.8345 51.2443 4.18879 54.303C4.23602 54.74 4.42498 54.7872 4.77927 54.7754C7.92064 54.7636 11.062 54.7754 14.2034 54.7754C14.8293 54.7754 14.8175 54.7754 14.8765 54.1613C15.03 52.378 15.1836 50.6066 15.3489 48.8233C15.6914 45.1269 16.0339 41.4187 16.3763 37.7222C16.4118 37.2735 16.4472 36.8247 16.4826 36.3641C14.664 36.3641 12.9161 36.3641 11.1329 36.3641C11.1329 36.5531 11.1211 36.7066 11.1329 36.872C11.1801 37.5805 11.2391 38.2891 11.2982 38.9859C11.3454 39.6118 11.3336 39.6118 11.9477 39.6118C12.6681 39.6118 13.3885 39.6 14.1207 39.6118C14.6521 39.6236 14.9474 39.8834 14.9474 40.3322C14.9474 40.7809 14.6521 41.0408 14.1207 41.0526C13.6483 41.0644 13.1759 41.0526 12.7035 41.0526C12.3138 41.0526 11.9123 41.0526 11.4635 41.0526C11.4872 41.5958 11.5226 42.0918 11.558 42.6351ZM15.16 32.03C15.5142 31.2033 15.0655 30.4829 14.1561 30.4829C10.7313 30.4829 7.31834 30.4829 3.89354 30.4829C3.81088 30.4829 3.7164 30.4829 3.63373 30.4947C2.91334 30.601 2.53543 31.4868 2.93696 32.03C7.01129 32.03 11.062 32.03 15.16 32.03ZM9.01893 34.8643C10.9675 34.8643 12.9161 34.8525 14.8647 34.8761C15.2426 34.8761 15.3253 34.699 15.3017 34.3919C15.2544 33.8133 14.8293 33.4353 14.2388 33.4235C12.739 33.4117 11.2273 33.4235 9.72751 33.4235C7.77892 33.4235 5.83033 33.4235 3.88173 33.4235C3.27944 33.4235 2.8661 33.766 2.79525 34.3093C2.7362 34.7698 2.81887 34.8643 3.26763 34.8643C5.1808 34.8643 7.09396 34.8643 9.01893 34.8643ZM2.004 36.3523C2.13391 37.3916 2.24019 38.3836 2.38191 39.3756C2.39372 39.4701 2.60629 39.5764 2.72439 39.5882C3.18497 39.6118 3.63373 39.6 4.09431 39.6C4.61393 39.6 5.14537 39.6 5.72404 39.6C5.61775 38.4781 5.51147 37.427 5.41699 36.3523C4.27145 36.3523 3.17316 36.3523 2.004 36.3523ZM10.8022 29.0303C11.7706 29.0303 12.7508 29.0303 13.7192 29.0303C14.2742 29.0303 14.4396 28.8296 14.3333 28.2745C14.2388 27.7903 13.8845 27.436 13.3885 27.4242C11.6761 27.4006 9.97552 27.4006 8.26312 27.4242C7.6254 27.436 7.23568 27.9557 7.28292 28.5934C7.30654 28.8886 7.41282 29.0422 7.74349 29.0303C8.77093 29.0185 9.78656 29.0303 10.8022 29.0303ZM6.86958 36.3287C6.96406 37.2144 7.03491 38.0293 7.11758 38.8324C7.20025 39.6 7.21206 39.6 7.9915 39.6C8.6056 39.6 9.2197 39.6 9.86923 39.6C9.78656 38.5253 9.72751 37.5451 9.63304 36.5649C9.62123 36.4822 9.50313 36.3405 9.43227 36.3405C8.6056 36.3287 7.77892 36.3287 6.86958 36.3287ZM6.00747 42.6351C5.97204 42.1863 5.93661 41.8084 5.913 41.4305C5.90119 41.147 5.78309 41.0171 5.47604 41.029C4.95641 41.0526 4.4486 41.029 3.92897 41.029C3.49202 41.029 3.05506 41.029 2.62991 41.029C2.55905 42.5878 2.58267 42.6233 4.03526 42.6233C4.05888 42.6233 4.09431 42.6233 4.11793 42.6233C4.74384 42.6351 5.35794 42.6351 6.00747 42.6351ZM10.0936 42.6351C10.0582 42.1391 10.0346 41.7021 9.98733 41.2651C9.97552 41.1825 9.82199 41.0644 9.72751 41.0526C9.01893 41.0408 8.31036 41.029 7.60178 41.0526C7.5073 41.0526 7.35377 41.2179 7.35377 41.3006C7.35377 41.6549 7.40101 42.0092 7.46006 42.3516C7.47187 42.4579 7.60178 42.6114 7.67263 42.6114C8.46388 42.6351 9.25513 42.6351 10.0936 42.6351Z" fill="#035D34"/>
<path d="M13.1877 20.1259C13.1995 22.4287 11.3572 24.2947 9.05433 24.3183C6.76325 24.3419 4.87371 22.476 4.8619 20.1849C4.85009 17.8584 6.70421 15.9689 9.0189 15.9689C11.3218 15.9571 13.1759 17.8112 13.1877 20.1259ZM6.31449 20.1495C6.31449 21.6375 7.53088 22.8539 9.00709 22.8657C10.4951 22.8775 11.7587 21.6257 11.7469 20.1377C11.7469 18.6615 10.5069 17.4333 9.04252 17.4215C7.54269 17.4215 6.31449 18.6379 6.31449 20.1495Z" fill="#035D34"/>
<path d="M47.3412 45.1505C49.6559 45.1151 51.5573 46.9574 51.5809 49.2839C51.6045 51.5277 49.7622 53.4409 47.5302 53.4763C45.1565 53.5118 43.2551 51.6931 43.2197 49.3666C43.2079 47.0637 45.0384 45.186 47.3412 45.1505ZM47.4121 52.0237C48.9001 52.0237 50.1165 50.8074 50.1283 49.3311C50.1401 47.8431 48.8883 46.5795 47.4003 46.5913C45.9241 46.5913 44.6959 47.8313 44.6841 49.2957C44.6959 50.7955 45.9005 52.0237 47.4121 52.0237Z" fill="#035D34"/>
<path d="M12.2784 5.19846C11.5698 4.50169 10.9321 3.86397 10.2944 3.23806C10.0109 2.95463 9.94007 2.62396 10.1526 2.28148C10.3534 1.96262 10.6723 1.89176 11.0029 2.00985C11.1565 2.0689 11.2982 2.19881 11.4163 2.31691C12.0186 2.9192 12.6209 3.52149 13.2586 4.18283C13.8136 3.61597 14.3333 3.09634 14.8411 2.57672C14.971 2.44681 15.0891 2.31691 15.219 2.19881C15.5615 1.89176 16.0102 1.86814 16.2937 2.16338C16.5889 2.45862 16.5889 2.88377 16.2464 3.22625C15.7268 3.76949 15.1836 4.28912 14.6521 4.82055C14.534 4.93865 14.4277 5.05675 14.2742 5.21027C14.9474 5.87161 15.5969 6.50933 16.2464 7.14705C16.5299 7.43049 16.5889 7.76116 16.3645 8.10364C16.1638 8.39888 15.8567 8.46974 15.5497 8.36345C15.3961 8.31621 15.2426 8.1863 15.1245 8.06821C14.5222 7.46592 13.9199 6.86362 13.2704 6.20228C12.987 6.4739 12.7271 6.73372 12.4791 6.99353C12.0776 7.39506 11.6997 7.79659 11.2864 8.17449C10.9793 8.46974 10.5306 8.48155 10.2471 8.22173C9.94007 7.9383 9.92826 7.48953 10.2589 7.15886C10.9085 6.50933 11.5698 5.88342 12.2784 5.19846Z" fill="#035D34"/>
<path d="M9.40865 12.5559C8.94807 12.5559 8.6174 12.2607 8.6174 11.8473C8.60559 11.4222 8.97169 11.0915 9.43227 11.1033C9.88104 11.1151 10.1999 11.4222 10.1999 11.8473C10.1881 12.2607 9.86923 12.5559 9.40865 12.5559Z" fill="#035D34"/>
<path d="M50.8724 17.4215C50.4 17.4333 50.0457 17.1144 50.0575 16.6775C50.0693 16.2641 50.4 15.9689 50.8605 15.9689C51.3211 15.9689 51.6282 16.2523 51.64 16.6893C51.64 17.1262 51.3329 17.4097 50.8724 17.4215Z" fill="#035D34"/>
<path d="M17.7935 22.8775C17.3211 22.8775 17.0141 22.6177 17.0022 22.1808C16.9904 21.7438 17.2857 21.4604 17.7581 21.4486C18.2423 21.4368 18.5729 21.732 18.5729 22.1689C18.5611 22.5823 18.2541 22.8657 17.7935 22.8775Z" fill="#035D34"/>
<path d="M1.98036 16.0988C1.51978 16.0988 1.20092 15.8035 1.20092 15.3784C1.20092 14.9532 1.51978 14.6462 1.96855 14.6462C2.41732 14.6344 2.79523 14.9769 2.78342 15.402C2.77161 15.8153 2.44094 16.0988 1.98036 16.0988Z" fill="#035D34"/>
<path d="M17.8643 13.0991C18.3249 13.1109 18.6438 13.4062 18.6438 13.8195C18.6438 14.2447 18.2895 14.5399 17.8053 14.5281C17.3447 14.5163 17.0495 14.221 17.0613 13.7841C17.0849 13.3589 17.392 13.0991 17.8643 13.0991Z" fill="#035D34"/>
<path d="M44.2235 15.7917C43.763 15.7917 43.4323 15.4965 43.4323 15.0832C43.4205 14.658 43.7748 14.351 44.2472 14.351C44.7077 14.3628 45.0148 14.6462 45.0148 15.0832C45.003 15.5083 44.6959 15.7917 44.2235 15.7917Z" fill="#035D34"/>
</svg>
