<svg width="69" height="53" viewBox="0 0 69 53" fill="none" xmlns="http://www.w3.org/2000/svg">
<path d="M63.7468 31.5824L60.6763 31.0148C60.4483 30.9726 60.2827 30.7735 60.2827 30.5416V30.3637C62.1995 29.1427 63.4747 27.0002 63.4747 24.5641V22.2685C63.4747 18.4786 60.3914 15.3954 56.6017 15.3954C52.812 15.3954 49.7287 18.4786 49.7287 22.2685V24.5641C49.7287 26.9997 51.0033 29.1418 52.9192 30.3629V30.5417C52.9192 30.7738 52.7536 30.9727 52.5254 31.0149L49.4563 31.5824C47.8577 31.8779 46.49 32.7514 45.5509 33.9618C44.6119 32.7512 43.2441 31.8779 41.6454 31.5824L38.5749 31.0148C38.3469 30.9726 38.1813 30.7735 38.1813 30.5416V30.3637C40.098 29.1427 41.3733 27.0002 41.3733 24.5641V22.2685C41.3733 18.4786 38.29 15.3954 34.5003 15.3954C30.7105 15.3954 27.6272 18.4786 27.6272 22.2685V24.5641C27.6272 26.9997 28.9018 29.1418 30.8178 30.3629V30.5417C30.8178 30.7738 30.6522 30.9727 30.424 31.0149L27.3549 31.5824C25.7563 31.8779 24.3885 32.7514 23.4495 33.9618C22.5104 32.7512 21.1427 31.8779 19.544 31.5824L16.4735 31.0148C16.2455 30.9726 16.0798 30.7735 16.0798 30.5416V30.3637C17.9966 29.1427 19.2719 27.0002 19.2719 24.5641V22.2685C19.2719 18.4786 16.1886 15.3954 12.3988 15.3954C8.6091 15.3954 5.52579 18.4786 5.52579 22.2685V24.5641C5.52579 26.9997 6.80041 29.1418 8.71637 30.3629V30.5417C8.71637 30.7738 8.55074 30.9727 8.32259 31.0149L5.25343 31.5824C2.20921 32.1452 0 34.8003 0 37.8958V50.7242C0 51.4685 0.603481 52.0719 1.34766 52.0719H67.6523C68.3965 52.0719 69 51.4685 69 50.7242V37.8959C69 34.8003 66.7906 32.1452 63.7468 31.5824ZM12.3984 18.0908C14.3167 18.0908 15.9374 19.3904 16.4256 21.1555L14.9102 20.2652C14.3427 19.9317 13.6174 20.0571 13.1946 20.5615C12.2949 21.6352 10.9754 22.2511 9.57469 22.2511H8.2207C8.23027 19.9555 10.1007 18.0908 12.3984 18.0908ZM8.2389 24.9463H9.57456C11.3847 24.9463 13.1084 24.2917 14.4496 23.1205L16.5762 24.3699V24.5641C16.5762 26.8676 14.7021 28.7418 12.3984 28.7418C10.2237 28.7418 8.43269 27.0713 8.2389 24.9463ZM13.619 31.7337L12.3988 32.9131L11.1769 31.7325C11.2275 31.608 11.2717 31.4807 11.3062 31.3493C11.6621 31.4064 12.0268 31.437 12.3984 31.437C12.7697 31.437 13.1339 31.4064 13.4892 31.3495C13.5239 31.4812 13.5683 31.609 13.619 31.7337ZM22.1014 49.3764H20.3879H19.9388V40.4162V40.0879C19.9388 39.3436 19.3354 38.7402 18.5912 38.7402C17.847 38.7402 17.2435 39.3436 17.2435 40.0879V40.4162V49.3766H7.55334V40.4162V40.0879C7.55334 39.3436 6.94986 38.7402 6.20569 38.7402C5.46151 38.7402 4.85803 39.3436 4.85803 40.0879V40.4162V49.3766H2.69531V37.8958C2.69531 36.0999 3.97707 34.5594 5.74304 34.2328L8.81219 33.6653C8.94386 33.641 9.07094 33.606 9.19573 33.5664L11.0512 35.3591V39.4547C11.0512 40.199 11.6547 40.8024 12.3988 40.8024C13.143 40.8024 13.7465 40.199 13.7465 39.4547V35.3588L15.6007 33.5667C15.7253 33.6062 15.8521 33.641 15.9832 33.6652L19.0536 34.2328C20.8195 34.5592 22.1014 36.0999 22.1014 37.8958V49.3764ZM34.5 18.0908C36.4183 18.0908 38.0389 19.3904 38.5272 21.1555L37.0118 20.2652C36.4443 19.9317 35.719 20.0571 35.2962 20.5615C34.3965 21.6352 33.077 22.2511 31.6763 22.2511H30.3223C30.3318 19.9555 32.2022 18.0908 34.5 18.0908ZM30.3405 24.9463H31.6761C33.4863 24.9463 35.2099 24.2917 36.5511 23.1205L38.6777 24.3699V24.5641C38.6777 26.8676 36.8037 28.7418 34.5 28.7418C32.3253 28.7418 30.5343 27.0713 30.3405 24.9463ZM35.7206 31.7337L34.5004 32.9131L33.2785 31.7325C33.329 31.608 33.3732 31.4807 33.4077 31.3493C33.7636 31.4064 34.1283 31.437 34.5 31.437C34.8713 31.437 35.2354 31.4064 35.5908 31.3495C35.6254 31.4812 35.6699 31.609 35.7206 31.7337ZM44.203 49.3764H42.4894H42.0404V40.4162V40.0879C42.0404 39.3436 41.4369 38.7402 40.6927 38.7402C39.9486 38.7402 39.3451 39.3436 39.3451 40.0879V40.4162V49.3766H29.6549V40.4162V40.0879C29.6549 39.3436 29.0514 38.7402 28.3073 38.7402C27.5631 38.7402 26.9596 39.3436 26.9596 40.0879V40.4162V49.3766H24.7969V37.8959V37.8958C24.7969 36.0999 26.0786 34.5594 27.8446 34.2328L30.9138 33.6653C31.0454 33.641 31.1725 33.606 31.2973 33.5664L33.1523 35.3585V39.4547C33.1523 40.199 33.7558 40.8024 34.5 40.8024C35.2442 40.8024 35.8477 40.199 35.8477 39.4547V35.3593L37.7023 33.5667C37.8268 33.6062 37.9536 33.641 38.0848 33.6652L41.1551 34.2328C42.9211 34.5592 44.203 36.0999 44.203 37.8958V49.3764ZM56.6016 18.0908C58.5198 18.0908 60.1405 19.3904 60.6288 21.1555L59.1133 20.2652C58.546 19.9317 57.8205 20.0571 57.3978 20.5615C56.4981 21.6352 55.1786 22.2511 53.7778 22.2511H52.4238C52.4334 19.9555 54.3038 18.0908 56.6016 18.0908ZM52.442 24.9463H53.7777C55.5879 24.9463 57.3115 24.2917 58.6527 23.1205L60.7793 24.3699V24.5641C60.7793 26.8676 58.9052 28.7418 56.6016 28.7418C54.4268 28.7418 52.6358 27.0713 52.442 24.9463ZM57.8221 31.7337L56.602 32.9131L55.38 31.7325C55.4306 31.608 55.4748 31.4807 55.5093 31.3493C55.8652 31.4064 56.2299 31.437 56.6016 31.437C56.9728 31.437 57.337 31.4064 57.6924 31.3495C57.727 31.4812 57.7715 31.609 57.8221 31.7337ZM66.3046 49.3764H65.3884H64.142V40.4162V40.0879C64.142 39.3436 63.5385 38.7402 62.7943 38.7402C62.0501 38.7402 61.4467 39.3436 61.4467 40.0879V40.4162V49.3766H51.7565V40.4162V40.0879C51.7565 39.3436 51.153 38.7402 50.4088 38.7402C49.6646 38.7402 49.0612 39.3436 49.0612 40.0879V40.4162V49.3766H48.4819H46.8984V37.8959V37.8958C46.8984 36.0999 48.1802 34.5594 49.9462 34.2328L53.0153 33.6653C53.147 33.641 53.2741 33.606 53.3989 33.5664L55.5875 35.6809V39.4547C55.5875 40.199 56.1909 40.8024 56.9351 40.8024C57.6793 40.8024 58.2828 40.199 58.2828 39.4547V35.0369L59.8039 33.5667C59.9284 33.6062 60.0552 33.641 60.1863 33.6652L63.2567 34.2328C65.0227 34.5592 66.3046 36.0999 66.3046 37.8958V49.3764Z" fill="#035D34"/>
<path d="M23.4492 0.928089C19.6595 0.928089 16.5762 4.01126 16.5762 7.80114V10.0967C16.5762 13.8866 19.6595 16.9698 23.4492 16.9698C27.239 16.9698 30.3223 13.8866 30.3223 10.0967V7.80114C30.3223 4.01126 27.239 0.928089 23.4492 0.928089ZM23.4492 3.6234C25.3675 3.6234 26.9882 4.92308 27.4764 6.68811L25.961 5.79784C25.3935 5.46443 24.6682 5.58977 24.2454 6.09419C23.3457 7.16787 22.0262 7.78375 20.6255 7.78375H19.2715C19.2811 5.48815 21.1515 3.6234 23.4492 3.6234ZM27.627 10.0967C27.627 12.4003 25.7529 14.2745 23.4492 14.2745C21.2745 14.2745 19.4835 12.6039 19.2897 10.4789H20.6253C22.4355 10.4789 24.1592 9.82437 25.5004 8.65312L27.627 9.90253V10.0967Z" fill="#035D34"/>
<path d="M45.5508 0.928089C41.761 0.928089 38.6777 4.01126 38.6777 7.80114V10.0967C38.6777 13.8866 41.761 16.9698 45.5508 16.9698C49.3405 16.9698 52.4238 13.8866 52.4238 10.0967V7.80114C52.4238 4.01126 49.3405 0.928089 45.5508 0.928089ZM45.5508 3.6234C47.469 3.6234 49.0897 4.92308 49.578 6.68811L48.0625 5.79784C47.4952 5.46443 46.7697 5.58977 46.347 6.09419C45.4473 7.16787 44.1278 7.78375 42.727 7.78375H41.373C41.3826 5.48815 43.253 3.6234 45.5508 3.6234ZM49.7285 10.0967C49.7285 12.4003 47.8545 14.2745 45.5508 14.2745C43.3761 14.2745 41.585 12.6039 41.3912 10.4789H42.7269C44.5371 10.4789 46.2607 9.82437 47.6019 8.65312L49.7285 9.90253V10.0967Z" fill="#035D34"/>
<path d="M23.4492 19.2275C22.705 19.2275 22.1016 19.8309 22.1016 20.5752V25.2536C22.1016 25.9979 22.705 26.6012 23.4492 26.6012C24.1934 26.6012 24.7969 25.9979 24.7969 25.2536V20.5752C24.7969 19.8309 24.1934 19.2275 23.4492 19.2275Z" fill="#035D34"/>
<path d="M24.4019 28.6065C24.1513 28.3545 23.8037 28.2117 23.4492 28.2117C23.0948 28.2117 22.7471 28.3545 22.4964 28.6065C22.2458 28.8572 22.1016 29.2049 22.1016 29.5593C22.1016 29.9137 22.2456 30.2614 22.4964 30.5121C22.7471 30.7628 23.0948 30.907 23.4492 30.907C23.8037 30.907 24.1513 30.7628 24.4019 30.5121C24.6525 30.2614 24.7969 29.9137 24.7969 29.5593C24.7969 29.2049 24.6527 28.8572 24.4019 28.6065Z" fill="#035D34"/>
<path d="M45.5508 23.5329C44.8066 23.5329 44.2031 24.1362 44.2031 24.8805V29.5589C44.2031 30.3032 44.8066 30.9066 45.5508 30.9066C46.295 30.9066 46.8984 30.3032 46.8984 29.5589V24.8805C46.8984 24.1362 46.295 23.5329 45.5508 23.5329Z" fill="#035D34"/>
<path d="M46.5034 19.6217C46.2529 19.371 45.9052 19.2282 45.5508 19.2282C45.1963 19.2282 44.8487 19.371 44.598 19.6217C44.3473 19.8737 44.2031 20.2201 44.2031 20.5745C44.2031 20.9303 44.3472 21.278 44.598 21.5273C44.8487 21.7793 45.1963 21.9221 45.5508 21.9221C45.9052 21.9221 46.2529 21.7793 46.5034 21.5273C46.7541 21.2766 46.8984 20.9303 46.8984 20.5745C46.8984 20.2201 46.7542 19.8737 46.5034 19.6217Z" fill="#035D34"/>
</svg>
