<svg width="56" height="56" viewBox="0 0 56 56" fill="none" xmlns="http://www.w3.org/2000/svg">
<path d="M49.0023 49.4375H29.7509C29.1469 49.4375 28.6571 49.9273 28.6571 50.5312C28.6571 51.1352 29.1469 51.625 29.7509 51.625H47.7211C47.2697 52.8982 46.0532 53.8125 44.6273 53.8125H9.8408C10.3195 53.1763 10.6629 52.4328 10.8275 51.625H20.7275C21.3315 51.625 21.8213 51.1352 21.8213 50.5312C21.8213 49.9273 21.3315 49.4375 20.7275 49.4375H9.84375C9.23978 49.4375 8.75 49.9273 8.75 50.5312C8.75 52.3405 7.27803 53.8125 5.46875 53.8125C3.65947 53.8125 2.1875 52.3405 2.1875 50.5312V2.1875H42.0008V15.6953C42.0008 16.2993 42.4905 16.7891 43.0945 16.7891C43.6985 16.7891 44.1883 16.2993 44.1883 15.6953V1.09375C44.1883 0.489781 43.6985 0 43.0945 0H1.09375C0.489781 0 0 0.489781 0 1.09375V50.5312C0 53.5467 2.45328 56 5.46875 56H44.6273C47.6428 56 50.096 53.5467 50.096 50.5312C50.096 49.9272 49.6063 49.4375 49.0023 49.4375Z" fill="#035D34"/>
<path d="M25.7577 49.7575C25.5542 49.5541 25.2721 49.4371 24.9844 49.4371C24.6967 49.4371 24.4147 49.5541 24.2111 49.7575C24.0078 49.9621 23.8907 50.243 23.8907 50.5308C23.8907 50.8185 24.0077 51.1007 24.2111 51.304C24.4146 51.5074 24.6967 51.6246 24.9844 51.6246C25.2721 51.6246 25.5542 51.5075 25.7577 51.304C25.961 51.1007 26.0782 50.8185 26.0782 50.5308C26.0782 50.243 25.9611 49.9621 25.7577 49.7575Z" fill="#035D34"/>
<path d="M31.1187 30.5781H13.0696C12.4656 30.5781 11.9758 31.0679 11.9758 31.6718C11.9758 32.2758 12.4656 32.7656 13.0696 32.7656H31.1187C31.7227 32.7656 32.2125 32.2758 32.2125 31.6718C32.2125 31.0679 31.7227 30.5781 31.1187 30.5781Z" fill="#035D34"/>
<path d="M31.1187 35.8281H13.0696C12.4656 35.8281 11.9758 36.3179 11.9758 36.9218C11.9758 37.5258 12.4656 38.0156 13.0696 38.0156H31.1187C31.7227 38.0156 32.2125 37.5258 32.2125 36.9218C32.2125 36.3179 31.7227 35.8281 31.1187 35.8281Z" fill="#035D34"/>
<path d="M31.8916 41.3981C31.6881 41.1946 31.4069 41.0775 31.1183 41.0775C30.8306 41.0775 30.5484 41.1946 30.345 41.3981C30.1417 41.6025 30.0245 41.8836 30.0245 42.1713C30.0245 42.4601 30.1416 42.7411 30.345 42.9446C30.5484 43.1491 30.8306 43.265 31.1183 43.265C31.407 43.265 31.6881 43.1491 31.8916 42.9446C32.0949 42.7422 32.212 42.46 32.212 42.1713C32.212 41.8836 32.095 41.6014 31.8916 41.3981Z" fill="#035D34"/>
<path d="M26.26 41.0781H13.0695C12.4656 41.0781 11.9758 41.5679 11.9758 42.1718C11.9758 42.7758 12.4656 43.2656 13.0695 43.2656H26.26C26.8639 43.2656 27.3537 42.7758 27.3537 42.1718C27.3537 41.5679 26.8639 41.0781 26.26 41.0781Z" fill="#035D34"/>
<path d="M30.923 17.5C30.9722 17.4348 31.0227 17.3696 31.07 17.3043C32.6122 15.1745 32.9902 13.1852 32.1346 11.7031C31.2792 10.2211 29.3682 9.55434 26.7515 9.8245C26.6738 9.83248 26.5948 9.84342 26.5163 9.85305C25.4712 7.40698 23.9049 5.90625 22.0942 5.90625C20.2835 5.90625 18.7173 7.40698 17.6721 9.85305C17.5935 9.84342 17.5145 9.83248 17.4368 9.8245C14.8213 9.55391 12.9092 10.2211 12.0537 11.7031C11.1492 13.2697 11.6638 15.374 13.2559 17.5C11.6638 19.626 11.1493 21.7303 12.0537 23.2969C12.8038 24.5963 14.3621 25.2352 16.3769 25.2352C16.7907 25.2352 17.2251 25.2062 17.6744 25.1524C18.7194 27.5953 20.2848 29.0938 22.0942 29.0938C23.9036 29.0938 25.4689 27.5953 26.514 25.1524C26.9633 25.2061 27.3976 25.2352 27.8115 25.2352C29.8258 25.2352 31.3846 24.5961 32.1346 23.2969C32.9902 21.8147 32.6121 19.8256 31.07 17.6957C31.0227 17.6304 30.9722 17.5652 30.923 17.5ZM13.9481 12.7969C14.263 12.2516 15.1293 11.9528 16.3339 11.9528C16.5332 11.9528 16.7419 11.9614 16.9587 11.9779C16.7727 12.6985 16.6229 13.4679 16.5141 14.2783C15.8661 14.7781 15.2741 15.293 14.7427 15.815C13.8565 14.511 13.5977 13.4038 13.9481 12.7969ZM16.3062 17.6504C16.2549 17.6003 16.2026 17.55 16.1531 17.5C16.2027 17.45 16.255 17.3997 16.3062 17.3496C16.3059 17.3997 16.3053 17.4497 16.3053 17.5C16.3053 17.5503 16.306 17.6003 16.3062 17.6504ZM13.9481 22.2031C13.5977 21.5963 13.8565 20.489 14.7427 19.185C15.2741 19.707 15.8661 20.2219 16.5141 20.7217C16.6231 21.5329 16.7729 22.303 16.9593 23.0242C15.3868 23.1396 14.2985 22.8102 13.9481 22.2031ZM25.0661 12.3604C25.0842 12.427 25.1013 12.4958 25.1186 12.5638C25.0751 12.5383 25.0323 12.5121 24.9885 12.4868C24.9467 12.4627 24.9047 12.44 24.8629 12.4161C24.9308 12.3972 24.9987 12.3783 25.0661 12.3604ZM22.0942 8.09375C22.7964 8.09375 23.6281 8.87458 24.3152 10.2998C23.5879 10.5014 22.8439 10.7559 22.0941 11.0624C21.3443 10.7559 20.6004 10.5014 19.8731 10.2998C20.5603 8.87458 21.3919 8.09375 22.0942 8.09375ZM19.1223 12.3604C19.1896 12.3782 19.2575 12.3971 19.3254 12.416C19.2836 12.4399 19.2415 12.4626 19.1998 12.4867C19.1563 12.5118 19.1133 12.5373 19.0701 12.5626C19.0873 12.4951 19.1042 12.4266 19.1223 12.3604ZM19.1236 22.6452C19.1051 22.5773 19.0877 22.5069 19.07 22.4374C19.1133 22.4627 19.1562 22.4882 19.1997 22.5133C19.2438 22.5388 19.2878 22.5623 19.3318 22.5874C19.2623 22.6068 19.1922 22.6271 19.1236 22.6452ZM22.0942 26.9062C21.3936 26.9062 20.5641 26.1287 19.8778 24.7093C20.5954 24.5101 21.3373 24.2547 22.0941 23.9435C22.851 24.2548 23.5929 24.5103 24.3105 24.7095C23.6243 26.1287 22.7949 26.9062 22.0942 26.9062ZM25.0647 22.6451C24.9961 22.627 24.926 22.6067 24.8566 22.5872C24.9005 22.5622 24.9445 22.5387 24.9886 22.5133C25.0323 22.488 25.0751 22.4618 25.1186 22.4363C25.1007 22.5061 25.0833 22.5769 25.0647 22.6451ZM25.6067 19.5246C25.0657 19.9065 24.4936 20.2732 23.8948 20.6189C23.2796 20.9741 22.6782 21.2848 22.0942 21.5556C21.5103 21.2848 20.9087 20.9741 20.2935 20.6189C19.6782 20.2638 19.1084 19.8983 18.582 19.5279C18.5245 18.8868 18.4929 18.2104 18.4929 17.5001C18.4929 16.7898 18.5245 16.1133 18.582 15.4723C19.1085 15.102 19.6783 14.7364 20.2935 14.3813C20.8912 14.0362 21.494 13.7245 22.0941 13.4472C22.6942 13.7245 23.297 14.0362 23.8947 14.3813C24.4935 14.727 25.0657 15.0938 25.6067 15.4756C25.664 16.1157 25.6955 16.7909 25.6955 17.5001C25.6955 18.2093 25.6639 18.8845 25.6067 19.5246ZM30.2401 22.2031C29.8898 22.8099 28.8016 23.1394 27.2291 23.024C27.416 22.3006 27.5662 21.528 27.6752 20.7141C28.3124 20.22 28.902 19.7052 29.438 19.1786C30.307 20.4459 30.6078 21.5663 30.2401 22.2031ZM27.8822 17.3567C27.931 17.4044 27.9798 17.4521 28.0274 17.5C27.9798 17.5479 27.931 17.5956 27.8822 17.6433C27.8824 17.5955 27.8831 17.5479 27.8831 17.5C27.8831 17.4521 27.8824 17.4045 27.8822 17.3567ZM29.4382 15.8215C28.9022 15.2949 28.3126 14.78 27.6754 14.2859C27.5665 13.4727 27.4164 12.7007 27.2298 11.9779C27.4464 11.9614 27.6552 11.9529 27.8544 11.9529C29.0588 11.9529 29.9255 12.2516 30.2402 12.797C30.6078 13.4338 30.3069 14.5541 29.4382 15.8215Z" fill="#035D34"/>
<path d="M46.3203 18.4629C40.9829 18.4629 36.6406 22.8052 36.6406 28.1426C36.6406 31.2582 38.1206 34.0342 40.4141 35.806V45.9303C40.4141 46.3713 40.679 46.7692 41.0858 46.9394C41.4929 47.1096 41.962 47.0188 42.2761 46.7089L46.3204 42.7189L50.3648 46.7089C50.5736 46.915 50.8511 47.0241 51.1331 47.0241C51.2753 47.0241 51.4186 46.9965 51.5549 46.9395C51.9618 46.7693 52.2267 46.3715 52.2267 45.9304V35.8061C54.52 34.0342 56 31.2583 56 28.1426C56 22.8052 51.6577 18.4629 46.3203 18.4629ZM50.0391 43.3147L47.0885 40.4038C46.6624 39.9836 45.9781 39.9836 45.5521 40.4038L42.6016 43.3147V37.079C43.7472 37.5575 45.0033 37.8223 46.3203 37.8223C47.6373 37.8223 48.8935 37.5575 50.0391 37.079V43.3147ZM46.3203 35.6348C42.1891 35.6348 38.8281 32.2739 38.8281 28.1426C38.8281 24.0114 42.1891 20.6504 46.3203 20.6504C50.4515 20.6504 53.8125 24.0114 53.8125 28.1426C53.8125 32.2738 50.4515 35.6348 46.3203 35.6348Z" fill="#035D34"/>
<path d="M51.9826 26.7647C51.8539 26.3688 51.5115 26.0804 51.0995 26.0205L48.4747 25.6399L47.3002 23.2618C47.1159 22.8887 46.7358 22.6524 46.3195 22.6524C46.3194 22.6524 46.3193 22.6524 46.3192 22.6524C45.9028 22.6526 45.5227 22.889 45.3386 23.2624L44.1654 25.641L41.5408 26.0232C41.1288 26.0831 40.7866 26.3718 40.6581 26.7678C40.5296 27.1638 40.637 27.5985 40.9351 27.889L42.8349 29.7398L42.3873 32.354C42.317 32.7643 42.4857 33.179 42.8226 33.4236C43.0131 33.5619 43.2387 33.6323 43.4654 33.6323C43.6396 33.6323 43.8144 33.5907 43.9744 33.5066L46.3218 32.2718L48.6697 33.5053C49.0384 33.699 49.4848 33.6666 49.8215 33.4217C50.1583 33.1769 50.3268 32.7622 50.2564 32.3518L49.8075 29.7379L51.7063 27.886C52.0043 27.5953 52.1114 27.1607 51.9826 26.7647ZM47.8684 28.5732C47.6108 28.8246 47.4931 29.1866 47.5542 29.5414L47.7252 30.5381L46.8302 30.0677C46.5116 29.9005 46.1309 29.9006 45.8123 30.068L44.9172 30.5388L45.088 29.5422C45.1488 29.1875 45.031 28.8253 44.7732 28.5741L44.0489 27.8685L45.0497 27.7228C45.4059 27.671 45.7138 27.4471 45.8731 27.1242L46.3203 26.2175L46.7681 27.1241C46.9274 27.4468 47.2354 27.6705 47.5917 27.7222L48.5922 27.8673L47.8684 28.5732Z" fill="#035D34"/>
</svg>
