<svg width="18" height="18" viewBox="0 0 18 18" fill="none" xmlns="http://www.w3.org/2000/svg">
<path d="M6.5627 13.2092V16.6877C6.5627 16.9307 6.7187 17.146 6.9497 17.2225C7.00745 17.2412 7.0667 17.2502 7.1252 17.2502C7.3007 17.2502 7.4702 17.1677 7.5782 17.0207L9.61294 14.2517L6.5627 13.2092Z" fill="#DDDDDD"/>
<path d="M17.7633 0.10334C17.5908 -0.01891 17.3643 -0.03541 17.1768 0.0628397L0.301855 8.87531C0.102356 8.97956 -0.0153938 9.19256 0.00110611 9.41681C0.0183561 9.64181 0.167606 9.83381 0.379855 9.90656L5.07109 11.51L15.0618 2.96758L7.33083 12.2818L15.1931 14.969C15.2516 14.9885 15.3131 14.999 15.3746 14.999C15.4766 14.999 15.5778 14.9713 15.6671 14.9173C15.8096 14.8303 15.9063 14.684 15.9311 14.5198L17.9935 0.644838C18.0243 0.434838 17.9358 0.226339 17.7633 0.10334Z" fill="#DDDDDD"/>
</svg>
