<svg width="97" height="76" viewBox="0 0 97 76" fill="none" xmlns="http://www.w3.org/2000/svg">
<path d="M0 28C0 12.536 12.536 0 28 0H93C95.2091 0 97 1.79086 97 4V47.4444C97 62.9084 84.464 75.4444 69 75.4444H4C1.79086 75.4444 0 73.6536 0 71.4444V28Z" fill="#ECFFF6"/>
<path d="M71.0023 58.4375H51.7509C51.1469 58.4375 50.6571 58.9273 50.6571 59.5312C50.6571 60.1352 51.1469 60.625 51.7509 60.625H69.7211C69.2697 61.8982 68.0532 62.8125 66.6273 62.8125H31.8408C32.3195 62.1763 32.6629 61.4328 32.8275 60.625H42.7275C43.3315 60.625 43.8213 60.1352 43.8213 59.5312C43.8213 58.9273 43.3315 58.4375 42.7275 58.4375H31.8438C31.2398 58.4375 30.75 58.9273 30.75 59.5312C30.75 61.3405 29.278 62.8125 27.4688 62.8125C25.6595 62.8125 24.1875 61.3405 24.1875 59.5312V11.1875H64.0008V24.6953C64.0008 25.2993 64.4905 25.7891 65.0945 25.7891C65.6985 25.7891 66.1883 25.2993 66.1883 24.6953V10.0938C66.1883 9.48978 65.6985 9 65.0945 9H23.0938C22.4898 9 22 9.48978 22 10.0938V59.5312C22 62.5467 24.4533 65 27.4688 65H66.6273C69.6428 65 72.096 62.5467 72.096 59.5312C72.096 58.9272 71.6063 58.4375 71.0023 58.4375Z" fill="#035D34"/>
<path d="M47.7577 58.7575C47.5542 58.5541 47.2721 58.4371 46.9844 58.4371C46.6967 58.4371 46.4147 58.5541 46.2111 58.7575C46.0078 58.9621 45.8907 59.243 45.8907 59.5308C45.8907 59.8185 46.0077 60.1007 46.2111 60.304C46.4146 60.5074 46.6967 60.6246 46.9844 60.6246C47.2721 60.6246 47.5542 60.5075 47.7577 60.304C47.961 60.1007 48.0782 59.8185 48.0782 59.5308C48.0782 59.243 47.9611 58.9621 47.7577 58.7575Z" fill="#035D34"/>
<path d="M53.1187 39.5781H35.0696C34.4656 39.5781 33.9758 40.0679 33.9758 40.6718C33.9758 41.2758 34.4656 41.7656 35.0696 41.7656H53.1187C53.7227 41.7656 54.2125 41.2758 54.2125 40.6718C54.2125 40.0679 53.7227 39.5781 53.1187 39.5781Z" fill="#035D34"/>
<path d="M53.1187 44.8281H35.0696C34.4656 44.8281 33.9758 45.3179 33.9758 45.9218C33.9758 46.5258 34.4656 47.0156 35.0696 47.0156H53.1187C53.7227 47.0156 54.2125 46.5258 54.2125 45.9218C54.2125 45.3179 53.7227 44.8281 53.1187 44.8281Z" fill="#035D34"/>
<path d="M53.8916 50.3981C53.6881 50.1946 53.4069 50.0775 53.1183 50.0775C52.8306 50.0775 52.5484 50.1946 52.345 50.3981C52.1417 50.6025 52.0245 50.8836 52.0245 51.1713C52.0245 51.4601 52.1416 51.7411 52.345 51.9446C52.5484 52.1491 52.8306 52.265 53.1183 52.265C53.407 52.265 53.6881 52.1491 53.8916 51.9446C54.0949 51.7422 54.212 51.46 54.212 51.1713C54.212 50.8836 54.095 50.6014 53.8916 50.3981Z" fill="#035D34"/>
<path d="M48.26 50.0781H35.0695C34.4656 50.0781 33.9758 50.5679 33.9758 51.1718C33.9758 51.7758 34.4656 52.2656 35.0695 52.2656H48.26C48.8639 52.2656 49.3537 51.7758 49.3537 51.1718C49.3537 50.5679 48.8639 50.0781 48.26 50.0781Z" fill="#035D34"/>
<path d="M52.923 26.5C52.9722 26.4348 53.0227 26.3696 53.07 26.3043C54.6122 24.1745 54.9902 22.1852 54.1346 20.7031C53.2792 19.2211 51.3682 18.5543 48.7515 18.8245C48.6738 18.8325 48.5948 18.8434 48.5163 18.853C47.4712 16.407 45.9049 14.9062 44.0942 14.9062C42.2835 14.9062 40.7173 16.407 39.6721 18.853C39.5935 18.8434 39.5145 18.8325 39.4368 18.8245C36.8213 18.5539 34.9092 19.2211 34.0537 20.7031C33.1492 22.2697 33.6638 24.374 35.2559 26.5C33.6638 28.626 33.1493 30.7303 34.0537 32.2969C34.8038 33.5963 36.3621 34.2352 38.3769 34.2352C38.7907 34.2352 39.2251 34.2062 39.6744 34.1524C40.7194 36.5953 42.2848 38.0938 44.0942 38.0938C45.9036 38.0938 47.4689 36.5953 48.514 34.1524C48.9633 34.2061 49.3976 34.2352 49.8115 34.2352C51.8258 34.2352 53.3846 33.5961 54.1346 32.2969C54.9902 30.8147 54.6121 28.8256 53.07 26.6957C53.0227 26.6304 52.9722 26.5652 52.923 26.5ZM35.9481 21.7969C36.263 21.2516 37.1293 20.9528 38.3339 20.9528C38.5332 20.9528 38.7419 20.9614 38.9587 20.9779C38.7727 21.6985 38.6229 22.4679 38.5141 23.2783C37.8661 23.7781 37.2741 24.293 36.7427 24.815C35.8565 23.511 35.5977 22.4038 35.9481 21.7969ZM38.3062 26.6504C38.2549 26.6003 38.2026 26.55 38.1531 26.5C38.2027 26.45 38.255 26.3997 38.3062 26.3496C38.3059 26.3997 38.3053 26.4497 38.3053 26.5C38.3053 26.5503 38.306 26.6003 38.3062 26.6504ZM35.9481 31.2031C35.5977 30.5963 35.8565 29.489 36.7427 28.185C37.2741 28.707 37.8661 29.2219 38.5141 29.7217C38.6231 30.5329 38.7729 31.303 38.9593 32.0242C37.3868 32.1396 36.2985 31.8102 35.9481 31.2031ZM47.0661 21.3604C47.0842 21.427 47.1013 21.4958 47.1186 21.5638C47.0751 21.5383 47.0323 21.5121 46.9885 21.4868C46.9467 21.4627 46.9047 21.44 46.8629 21.4161C46.9308 21.3972 46.9987 21.3783 47.0661 21.3604ZM44.0942 17.0938C44.7964 17.0938 45.6281 17.8746 46.3152 19.2998C45.5879 19.5014 44.8439 19.7559 44.0941 20.0624C43.3443 19.7559 42.6004 19.5014 41.8731 19.2998C42.5603 17.8746 43.3919 17.0938 44.0942 17.0938ZM41.1223 21.3604C41.1896 21.3782 41.2575 21.3971 41.3254 21.416C41.2836 21.4399 41.2415 21.4626 41.1998 21.4867C41.1563 21.5118 41.1133 21.5373 41.0701 21.5626C41.0873 21.4951 41.1042 21.4266 41.1223 21.3604ZM41.1236 31.6452C41.1051 31.5773 41.0877 31.5069 41.07 31.4374C41.1133 31.4627 41.1562 31.4882 41.1997 31.5133C41.2438 31.5388 41.2878 31.5623 41.3318 31.5874C41.2623 31.6068 41.1922 31.6271 41.1236 31.6452ZM44.0942 35.9062C43.3936 35.9062 42.5641 35.1287 41.8778 33.7093C42.5954 33.5101 43.3373 33.2547 44.0941 32.9435C44.851 33.2548 45.5929 33.5103 46.3105 33.7095C45.6243 35.1287 44.7949 35.9062 44.0942 35.9062ZM47.0647 31.6451C46.9961 31.627 46.926 31.6067 46.8566 31.5872C46.9005 31.5622 46.9445 31.5387 46.9886 31.5133C47.0323 31.488 47.0751 31.4618 47.1186 31.4363C47.1007 31.5061 47.0833 31.5769 47.0647 31.6451ZM47.6067 28.5246C47.0657 28.9065 46.4936 29.2732 45.8948 29.6189C45.2796 29.9741 44.6782 30.2848 44.0942 30.5556C43.5103 30.2848 42.9087 29.9741 42.2935 29.6189C41.6782 29.2638 41.1084 28.8983 40.582 28.5279C40.5245 27.8868 40.4929 27.2104 40.4929 26.5001C40.4929 25.7898 40.5245 25.1133 40.582 24.4723C41.1085 24.102 41.6783 23.7364 42.2935 23.3813C42.8912 23.0362 43.494 22.7245 44.0941 22.4472C44.6942 22.7245 45.297 23.0362 45.8947 23.3813C46.4935 23.727 47.0657 24.0938 47.6067 24.4756C47.664 25.1157 47.6955 25.7909 47.6955 26.5001C47.6955 27.2093 47.6639 27.8845 47.6067 28.5246ZM52.2401 31.2031C51.8898 31.8099 50.8016 32.1394 49.2291 32.024C49.416 31.3006 49.5662 30.528 49.6752 29.7141C50.3124 29.22 50.902 28.7052 51.438 28.1786C52.307 29.4459 52.6078 30.5663 52.2401 31.2031ZM49.8822 26.3567C49.931 26.4044 49.9798 26.4521 50.0274 26.5C49.9798 26.5479 49.931 26.5956 49.8822 26.6433C49.8824 26.5955 49.8831 26.5479 49.8831 26.5C49.8831 26.4521 49.8824 26.4045 49.8822 26.3567ZM51.4382 24.8215C50.9022 24.2949 50.3126 23.78 49.6754 23.2859C49.5665 22.4727 49.4164 21.7007 49.2298 20.9779C49.4464 20.9614 49.6552 20.9529 49.8544 20.9529C51.0588 20.9529 51.9255 21.2516 52.2402 21.797C52.6078 22.4338 52.3069 23.5541 51.4382 24.8215Z" fill="#035D34"/>
<path d="M68.3203 27.4629C62.9829 27.4629 58.6406 31.8052 58.6406 37.1426C58.6406 40.2582 60.1206 43.0342 62.4141 44.806V54.9303C62.4141 55.3713 62.679 55.7692 63.0858 55.9394C63.4929 56.1096 63.962 56.0188 64.2761 55.7089L68.3204 51.7189L72.3648 55.7089C72.5736 55.915 72.8511 56.0241 73.1331 56.0241C73.2753 56.0241 73.4186 55.9965 73.5549 55.9395C73.9618 55.7693 74.2267 55.3715 74.2267 54.9304V44.8061C76.52 43.0342 78 40.2583 78 37.1426C78 31.8052 73.6577 27.4629 68.3203 27.4629ZM72.0391 52.3147L69.0885 49.4038C68.6624 48.9836 67.9781 48.9836 67.5521 49.4038L64.6016 52.3147V46.079C65.7472 46.5575 67.0033 46.8223 68.3203 46.8223C69.6373 46.8223 70.8935 46.5575 72.0391 46.079V52.3147ZM68.3203 44.6348C64.1891 44.6348 60.8281 41.2739 60.8281 37.1426C60.8281 33.0114 64.1891 29.6504 68.3203 29.6504C72.4515 29.6504 75.8125 33.0114 75.8125 37.1426C75.8125 41.2738 72.4515 44.6348 68.3203 44.6348Z" fill="#035D34"/>
<path d="M73.9826 35.7647C73.8539 35.3688 73.5115 35.0804 73.0995 35.0205L70.4747 34.6399L69.3002 32.2618C69.1159 31.8887 68.7358 31.6524 68.3195 31.6524C68.3194 31.6524 68.3193 31.6524 68.3192 31.6524C67.9028 31.6526 67.5227 31.889 67.3386 32.2624L66.1654 34.641L63.5408 35.0232C63.1288 35.0831 62.7866 35.3718 62.6581 35.7678C62.5296 36.1638 62.637 36.5985 62.9351 36.889L64.8349 38.7398L64.3873 41.354C64.317 41.7643 64.4857 42.179 64.8226 42.4236C65.0131 42.5619 65.2387 42.6323 65.4654 42.6323C65.6396 42.6323 65.8144 42.5907 65.9744 42.5066L68.3218 41.2718L70.6697 42.5053C71.0384 42.699 71.4848 42.6666 71.8215 42.4217C72.1583 42.1769 72.3268 41.7622 72.2564 41.3518L71.8075 38.7379L73.7063 36.886C74.0043 36.5953 74.1114 36.1607 73.9826 35.7647ZM69.8684 37.5732C69.6108 37.8246 69.4931 38.1866 69.5542 38.5414L69.7252 39.5381L68.8302 39.0677C68.5116 38.9005 68.1309 38.9006 67.8123 39.068L66.9172 39.5388L67.088 38.5422C67.1488 38.1875 67.031 37.8253 66.7732 37.5741L66.0489 36.8685L67.0497 36.7228C67.4059 36.671 67.7138 36.4471 67.8731 36.1242L68.3203 35.2175L68.7681 36.1241C68.9274 36.4468 69.2354 36.6705 69.5917 36.7222L70.5922 36.8673L69.8684 37.5732Z" fill="#035D34"/>
</svg>
