<svg width="191" height="148" viewBox="0 0 191 148" fill="none" xmlns="http://www.w3.org/2000/svg">
<path d="M95.1028 147.034C97.713 145.403 110.991 136.704 127.333 116.769C144.016 96.2907 167.508 59.4418 184.19 0.0605469H6.58252C7.83088 6.88667 23.8326 86.8067 95.1028 147.034Z" fill="url(#paint0_linear)"/>
<path d="M94.9884 147.517C22.6969 86.7461 7.14909 6.70531 6.01421 0.0604082H5.44678C6.58165 6.58449 22.5834 87.169 94.5344 147.698L94.8749 148L95.3289 147.698C95.4423 147.638 109.969 139.301 128.24 117.011C145.036 96.4718 168.528 59.5624 185.211 0H184.643C152.3 115.319 94.9884 147.517 94.9884 147.517Z" fill="#A3A3A3"/>
<path d="M184.757 0.0605469H184.19C167.507 59.4418 144.015 96.2908 127.333 116.769C110.991 136.764 97.7125 145.403 95.1023 147.034C23.8322 86.8067 7.83045 6.88667 6.58209 0.0605469H6.01465C7.14952 6.70545 22.6973 86.7463 94.9888 147.517C94.9888 147.517 152.3 115.319 184.757 0.0605469Z" fill="#C1C1C1"/>
<path d="M91.1299 50.0781H99.8684L95.4424 140.69L91.1299 50.0781Z" fill="#EDEDED"/>
<path d="M98.1661 84.5712L99.8684 50.0781H91.1299L92.7187 84.5712H98.1661Z" fill="#848484"/>
<path d="M100.323 132.777H99.415L101.344 54.79H102.139L100.323 132.777Z" fill="url(#paint1_linear)"/>
<path d="M91.47 132.777L87.0439 54.79H87.9518L92.3779 132.717L91.47 132.777Z" fill="url(#paint2_linear)"/>
<path d="M94.9887 49.0515C57.5379 49.0515 15.661 33.8891 15.207 33.7079L15.888 33.2246C16.3419 33.4058 57.8783 48.4475 94.9887 48.4475C132.78 48.4475 173.068 33.3454 173.522 33.2246L174.203 33.7079C173.749 33.8891 133.234 49.0515 94.9887 49.0515Z" fill="#C1C1C1"/>
<path d="M47.4384 42.8295L40.6291 16.7332L9.87402 16.1895V15.5854L41.6505 16.1291L48.5733 42.7087L47.4384 42.8295Z" fill="#C1C1C1"/>
<g opacity="0.94">
<path opacity="0.94" d="M163.763 44.4604C163.763 44.4604 142.201 86.4441 140.271 89.1021L191 102.271V62.4621L173.977 54.7902L163.763 44.4604Z" fill="#DBDCDE"/>
<path opacity="0.94" d="M139.136 90.4917L133.007 102.936L190.886 117.192V103.359L139.136 90.4917Z" fill="#DBDCDE"/>
</g>
<g opacity="0.94">
<path opacity="0.94" d="M27.237 44.4604C27.237 44.4604 48.7996 86.4441 50.7289 89.1021L0 102.271V62.4621L17.0231 54.7902L27.237 44.4604Z" fill="#DBDCDE"/>
<path opacity="0.94" d="M51.7503 90.4912L57.8786 102.935L0 117.192V103.358L51.7503 90.4912Z" fill="#DBDCDE"/>
</g>
<path d="M113.714 22.955H81.5974C79.8951 22.955 78.5332 22.2301 78.5332 21.324V8.8195C78.5332 7.91337 79.8951 7.18848 81.5974 7.18848H113.714C115.417 7.18848 116.778 7.91337 116.778 8.8195V21.324C116.778 22.2301 115.417 22.955 113.714 22.955Z" fill="#8AA7C9"/>
<path d="M181.353 11.78H148.668C147.306 11.78 146.171 11.176 146.171 10.4511V4.28943C146.171 3.56453 147.306 2.96045 148.668 2.96045H183.963L183.849 3.26249H148.668C147.647 3.26249 146.739 3.74576 146.739 4.28943V10.4511C146.739 10.9947 147.647 11.478 148.668 11.478H181.353V11.78Z" fill="#A3A3A3"/>
<path d="M119.361 43.9269L116.555 44.8137C116.029 44.9537 115.415 44.8603 115.152 44.627L102.526 32.9586C102.263 32.6786 102.438 32.3519 102.877 32.2119L105.683 31.3251C106.209 31.185 106.822 31.2784 107.086 31.5118L119.712 43.1801C120.063 43.4135 119.887 43.7868 119.361 43.9269Z" fill="url(#paint3_linear)"/>
<path d="M115.942 45C115.854 45 115.679 45 115.591 45C115.24 44.9534 114.977 44.86 114.802 44.6733L102.176 33.005C102 32.865 102 32.6783 102.088 32.4916C102.176 32.3049 102.351 32.1649 102.702 32.0715L105.508 31.1848C105.771 31.0914 106.121 31.0914 106.472 31.1381C106.823 31.1848 107.086 31.2781 107.261 31.4648L119.888 43.1331C120.238 43.4598 120.063 43.8799 119.449 44.0666L116.643 44.9534C116.38 44.9534 116.205 45 115.942 45ZM106.121 31.3248C105.946 31.3248 105.858 31.3248 105.683 31.3714L102.877 32.2582C102.439 32.3983 102.351 32.6316 102.614 32.865L115.24 44.5333C115.328 44.6267 115.504 44.72 115.767 44.72C115.942 44.7667 116.205 44.72 116.38 44.6733L119.186 43.7865C119.625 43.6465 119.712 43.4132 119.449 43.1798L106.823 31.5115C106.735 31.4181 106.56 31.3248 106.297 31.3248C106.297 31.3248 106.209 31.3248 106.121 31.3248Z" fill="#ADADAD"/>
<path d="M125.238 41.7791L122.695 42.8993C122.257 43.086 121.555 43.086 121.204 42.8526L104.895 32.4911C104.544 32.2578 104.544 31.8844 104.983 31.6977L107.526 30.5775C107.964 30.3909 108.666 30.3909 109.016 30.6242L125.325 40.939C125.676 41.2191 125.676 41.5924 125.238 41.7791Z" fill="url(#paint4_linear)"/>
<path d="M121.991 43.1333H121.904C121.553 43.1333 121.29 43.04 121.027 42.9L104.718 32.5852C104.279 32.3051 104.367 31.8851 104.893 31.6517L107.436 30.5315C107.699 30.3915 108.05 30.3449 108.4 30.3915C108.751 30.3915 109.014 30.4849 109.277 30.6249L125.587 40.9397C125.762 41.0797 125.937 41.2664 125.85 41.4531C125.85 41.6398 125.674 41.7798 125.411 41.9198L122.868 43.04C122.605 43.0867 122.342 43.1333 121.991 43.1333ZM108.225 30.5782C108.05 30.5782 107.874 30.6249 107.699 30.6716L105.156 31.7917C104.805 31.9317 104.718 32.2118 105.068 32.3985L121.378 42.7133C121.553 42.8066 121.728 42.8533 121.904 42.8533C122.167 42.8533 122.342 42.8066 122.518 42.76L125.06 41.6398C125.236 41.5464 125.323 41.4531 125.323 41.3598C125.323 41.2197 125.236 41.1264 125.148 41.033L108.839 30.7182C108.751 30.6249 108.576 30.5782 108.225 30.5782C108.225 30.5782 108.313 30.5782 108.225 30.5782Z" fill="#ADADAD"/>
<path d="M130.234 39.119L128.13 40.4726C127.779 40.7059 127.078 40.7526 126.639 40.5192L107.261 31.838C106.823 31.6513 106.735 31.2779 107.173 31.0445L109.278 29.7377C109.629 29.5043 110.33 29.4577 110.769 29.691L130.147 38.3723C130.585 38.5123 130.673 38.8857 130.234 39.119Z" fill="url(#paint5_linear)"/>
<path d="M127.341 40.753C127.078 40.753 126.727 40.7064 126.552 40.613L107.086 31.9318C106.823 31.8384 106.647 31.6517 106.647 31.465C106.647 31.2784 106.735 31.0917 106.911 30.9516L109.015 29.5981C109.19 29.4581 109.541 29.3647 109.892 29.3647C110.243 29.3647 110.593 29.4114 110.856 29.5048L130.234 4386C130.761 38.4194 130.848 38.8394 130.41 39.1195L128.305 40.473C128.13 40.613 127.779 40.7064 127.429 40.7064C127.429 40.753 127.341 40.753 127.341 40.753ZM110.067 29.6448C110.067 29.6448 109.979 29.6448 110.067 29.6448C109.804 29.6448 109.541 29.6915 109.453 29.7848L107.261 31.1383C107.086 31.2317 107.086 31.325 107.086 31.465C107.086 31.6051 107.174 31.6984 107.349 31.7451L126.815 40.4263C126.99 40.5197 127.166 40.5197 127.429 40.5197C127.692 40.5197 127.867 40.473 127.955 40.3796L130.059 39.0261C130.322 38.8394 130.322 38.5594 129.971 38.4194L110.593 29.7381C110.418 29.6915 110.243 29.6448 110.067 29.6448Z" fill="#ADADAD"/>
<path d="M134.357 36.039L132.691 37.5325C132.428 37.8126 131.726 37.9059 131.288 37.7192L109.367 30.9983C108.841 30.8582 108.665 30.4849 109.016 30.2515L110.682 28.7579C110.945 28.4779 111.646 28.3846 112.085 28.5712L134.006 35.2922C134.532 35.4322 134.707 35.7589 134.357 36.039Z" fill="url(#paint6_linear)"/>
<path d="M131.812 37.9524C131.549 37.9524 131.373 37.9057 131.198 37.859L109.277 31.0914C109.014 30.9981 108.751 30.858 108.663 30.6714C108.576 30.4847 108.663 30.298 108.751 30.158L110.417 28.6644C110.592 28.5244 110.855 28.3844 111.206 28.3377C111.557 28.291 111.908 28.3377 112.171 28.3844L134.092 35.1053C134.355 35.1987 134.618 35.3387 134.705 35.5254C134.793 35.7121 134.705 35.8988 134.618 36.0388L132.952 37.5323C132.776 37.6723 132.513 37.8124 132.163 37.859C132.075 37.9524 131.9 37.9524 131.812 37.9524ZM111.557 28.5711C111.469 28.5711 111.381 28.5711 111.381 28.5711C111.206 28.6177 110.943 28.6644 110.855 28.7578L109.189 30.2513C109.102 30.3446 109.014 30.4847 109.102 30.578C109.189 30.6714 109.277 30.8114 109.452 30.8581L131.373 37.579C131.549 37.6257 131.812 37.6724 131.987 37.6257C132.163 37.579 132.426 37.5323 132.513 37.439L134.179 35.9454C134.267 35.8521 134.355 35.7121 134.267 35.6187C134.179 35.5254 134.092 35.3854 133.916 35.3387L111.908 28.6177C111.82 28.5711 111.645 28.5711 111.557 28.5711Z" fill="#ADADAD"/>
<path d="M59.5602 32.9584L58.3326 31.1848C58.1573 30.8581 58.4203 30.5314 59.0341 30.3914L85.0763 25.3507C85.6901 25.2573 86.3039 25.3973 86.5669 25.724L87.7945 27.4976C87.9699 27.8243 87.7068 28.1511 87.093 28.2911L61.0508 33.3318C60.437 33.4718 59.8233 33.2851 59.5602 32.9584Z" fill="url(#paint7_linear)"/>
<path d="M60.6126 33.5191C60.0865 33.5191 59.5604 33.3324 59.2974 33.0524L58.0698 31.2788C57.9821 31.0921 57.9821 30.9054 58.1575 30.7187C58.3329 30.532 58.5959 30.392 58.9466 30.3453L84.9888 25.3046C85.3396 25.2579 85.6903 25.2579 86.041 25.3513C86.3918 25.4446 86.6548 25.5846 86.7425 25.7713L87.9701 27.5449C88.0578 27.7316 88.0578 27.9183 87.8824 28.105C87.707 28.2917 87.444 28.4317 87.0932 28.4784L61.1387 33.4724C60.9634 33.4724 60.788 33.5191 60.6126 33.5191ZM59.7358 32.959C59.9112 33.239 60.4373 33.3324 60.9634 33.239L87.0055 28.1983C87.2686 28.1517 87.444 28.0583 87.5317 27.965C87.6193 27.8249 87.6193 27.7316 87.5317 27.5916L86.3041 25.818C86.2164 25.678 86.041 25.5846 85.778 25.538C85.5149 25.4913 85.3396 25.4913 85.0765 25.538L59.122 30.4853C58.859 30.532 58.6836 30.6253 58.5959 30.7187C58.5082 30.812 58.5082 30.9521 58.5959 31.0921L59.7358 32.959Z" fill="#ADADAD"/>
<path d="M62.8055 36.7392L61.0518 35.1057C60.7011 34.8256 60.9641 34.4522 61.4902 34.2655L85.5157 26.8912C86.0418 26.7045 86.7432 26.8445 87.094 27.1245L88.8477 28.7581C89.1984 29.0381 88.9353 29.4115 88.4092 29.5982L64.3838 36.9726C63.8577 37.1126 63.1562 37.0193 62.8055 36.7392Z" fill="url(#paint8_linear)"/>
<path d="M63.7691 37.1592C63.6815 37.1592 63.5061 37.1592 63.4184 37.1125C63.0677 37.0658 62.8046 36.9258 62.6292 36.7858L60.8756 35.1522C60.5248 34.8255 60.7002 34.3588 61.4017 34.1721L85.4271 26.7977C85.7779 26.7043 86.1286 26.6577 86.4793 26.7043C86.8301 26.751 87.0931 26.891 87.3562 27.0311L89.1098 28.6646C89.2852 28.8513 89.3729 29.038 89.2852 29.2247C89.1975 29.4114 88.9345 29.5514 88.6714 29.6914L64.4706 37.0658C64.2952 37.1125 64.0322 37.1592 63.7691 37.1592ZM86.0409 26.891C85.8655 26.891 85.6902 26.891 85.6025 26.9377L61.577 34.3588C61.1386 34.4988 60.9632 34.7788 61.2263 35.0589L62.98 36.6924C63.0677 36.7858 63.3307 36.8791 63.5061 36.9258C63.7691 36.9725 64.0322 36.9258 64.2076 36.8791L88.233 29.5047C88.4084 29.4581 88.5837 29.3181 88.6714 29.2247C88.7591 29.1314 88.6714 28.9447 88.5837 28.8513L86.8301 27.2178C86.6547 27.0311 86.4793 26.9377 86.2163 26.9377C86.1286 26.891 86.0409 26.891 86.0409 26.891Z" fill="#ADADAD"/>
<path d="M67.6284 39.2589L65.4363 37.8587C65.0856 37.6253 65.0856 37.2519 65.6117 37.0652L85.516 28.1506C85.9544 27.9639 86.6559 27.9639 87.0066 28.244L89.1987 29.5975C89.5495 29.8309 89.5495 30.2042 89.0234 30.3909L69.1191 39.3055C68.6806 39.5389 67.9792 39.4922 67.6284 39.2589Z" fill="url(#paint9_linear)"/>
<path d="M68.4169 39.5861H68.3292C67.9785 39.5861 67.6278 39.4928 67.4524 39.3528L65.2603 37.9992C64.9972 37.8592 64.9096 37.6725 64.9972 37.4858C65.0849 37.2991 65.1726 37.1124 65.4357 37.0191L85.3399 28.1045C85.866 27.8711 86.7429 27.9178 87.1813 28.1978L89.3734 29.5514C89.6365 29.6914 89.7241 29.8781 89.6365 30.0648C89.6365 30.2515 89.4611 30.4382 89.198 30.5315L69.2938 39.3994C69.0307 39.4928 68.7677 39.5861 68.4169 39.5861ZM86.2168 28.1512C86.0414 28.1512 85.866 28.1978 85.6907 28.2445L65.6987 37.1591C65.5233 37.2058 65.4357 37.3458 65.4357 37.4392C65.4357 37.5792 65.5233 37.6725 65.611 37.7659L67.8031 39.1194C67.9785 39.2127 68.1539 39.2594 68.4169 39.2594C68.68 39.2594 68.8553 39.2127 69.0307 39.1661L88.935 30.2515C89.1104 30.1581 89.198 30.0648 89.198 29.9248C89.198 29.7847 89.1104 29.6914 89.0227 29.598L86.8306 28.2445C86.6552 28.1978 86.4798 28.1512 86.2168 28.1512Z" fill="#ADADAD"/>
<path d="M72.8001 41.5935L70.2573 40.4734C69.8189 40.2867 69.7312 39.9133 70.1696 39.6799L86.4788 29.3651C86.8296 29.1318 87.531 29.0851 87.9695 29.3185L90.5123 30.4386C90.9507 30.6253 91.0384 30.9987 90.6 31.2321L74.2031 41.5002C73.8523 41.7336 73.2385 41.7802 72.8001 41.5935Z" fill="url(#paint10_linear)"/>
<path d="M73.414 41.8266C73.1509 41.8266 72.8002 41.7799 72.6248 41.6865L70.082 40.5664C69.8189 40.473 69.6436 40.2863 69.6436 40.0997C69.6436 39.913 69.7312 39.7263 69.9066 39.5863L86.2158 29.2715C86.3912 29.1314 86.7419 29.0381 87.0927 29.0381C87.4434 29.0381 87.7942 29.0848 88.0572 29.1781L90.6 30.2983C90.8631 30.3916 91.0385 30.5783 91.0385 30.765C91.0385 30.9517 90.9508 31.1384 90.7754 31.2784L74.3785 41.5932C74.2031 41.7332 73.8524 41.8266 73.5017 41.8266C73.5017 41.8266 73.5017 41.8266 73.414 41.8266ZM87.1804 29.2248C86.9173 29.2248 86.6543 29.2715 86.5666 29.3648L70.2573 39.7263C70.082 39.8196 70.082 39.913 70.082 40.053C70.082 40.193 70.1697 40.2863 70.345 40.333L72.8879 41.4532C73.0632 41.5465 73.2386 41.5465 73.5017 41.5465C73.7647 41.5465 73.9401 41.4999 74.0278 41.4065L90.337 31.0917C90.5124 30.9984 90.5124 30.905 90.5124 30.765C90.5124 30.625 90.4247 30.5316 90.2493 30.485L87.7065 29.3648C87.6188 29.2715 87.4434 29.2248 87.1804 29.2248Z" fill="#ADADAD"/>
<path d="M78.5896 43.7869L75.7837 42.9001C75.2576 42.7601 75.0822 42.3867 75.433 42.1533L88.0595 30.485C88.3225 30.205 89.024 30.1116 89.4624 30.2983L92.2683 31.1851C92.7944 31.3251 92.9698 31.6985 92.6191 31.9319L79.9925 43.6002C79.7295 43.8336 79.028 43.9269 78.5896 43.7869Z" fill="url(#paint11_linear)"/>
<path d="M79.1145 43.9734C78.8514 43.9734 78.6761 43.9267 78.5007 43.88L75.6948 42.9932C75.081 42.8066 74.9057 42.3865 75.2564 42.0598L87.8829 30.3915C88.0583 30.2514 88.3213 30.1114 88.6721 30.0647C89.0228 30.0181 89.3735 30.0647 89.6366 30.1114L92.4425 30.9982C93.0563 31.1849 93.2316 31.605 92.8809 31.9317L80.2544 43.6C80.079 43.74 79.816 43.88 79.4652 43.9267C79.2899 43.9734 79.2022 43.9734 79.1145 43.9734ZM88.9351 30.2981C88.6721 30.2981 88.3213 30.3915 88.2336 30.5315L75.6071 42.1998C75.3441 42.4332 75.5194 42.6665 75.8702 42.8066L78.6761 43.6933C78.8514 43.74 79.1145 43.7867 79.2899 43.74C79.4652 43.6933 79.7283 43.6467 79.816 43.5533L92.4425 31.885C92.7055 31.6516 92.5302 31.4183 92.1794 31.2782L89.3735 30.3915C89.1982 30.2981 89.0228 30.2981 88.9351 30.2981Z" fill="#ADADAD"/>
<path d="M84.9893 45.3736L81.9203 44.7669C81.3942 44.6735 81.1312 44.3468 81.3065 44.0668L89.9873 31.3716C90.1626 31.0916 90.7764 30.9516 91.3025 31.0449L94.3715 31.6517C94.8976 31.745 95.1606 32.0717 94.9853 32.3518L86.3045 45.0469C86.1292 45.3269 85.5154 45.5136 84.9893 45.3736Z" fill="url(#paint12_linear)"/>
<path d="M85.3394 45.5604C85.164 45.5604 85.0763 45.5604 84.9009 45.5137L81.832 44.9069C81.1305 44.7669 80.8675 44.3935 81.0428 44.0202L89.7236 31.325C89.9866 30.9516 90.6881 30.8116 91.3896 30.905L94.4585 31.5117C94.8093 31.5584 95.0723 31.6984 95.16 31.8851C95.3354 32.0718 95.3354 32.2118 95.16 32.3985L86.4793 45.0936C86.3039 45.3737 85.8655 45.5604 85.3394 45.5604ZM85.0763 45.2803C85.5147 45.3737 85.9532 45.2337 86.1285 45.0003L94.8093 32.3052C94.8969 32.2118 94.8969 32.0718 94.8093 31.9784C94.7216 31.8851 94.5462 31.7917 94.3708 31.7451L91.3019 31.1383C90.8635 31.045 90.425 31.185 90.2497 31.4184L81.569 44.1135C81.3936 44.3469 81.6566 44.5802 82.0951 44.6736L85.0763 45.2803Z" fill="#ADADAD"/>
<path d="M91.8283 46.3994L88.584 46.0727C87.9702 46.026 87.6195 45.746 87.7072 45.4193L92.0914 32.1174C92.1791 31.7907 92.7052 31.604 93.319 31.6507L96.5633 31.9774C97.1771 32.024 97.5278 32.3041 97.4401 32.6308L93.0559 45.9327C92.9682 46.2594 92.4421 46.4461 91.8283 46.3994Z" fill="url(#paint13_linear)"/>
<path d="M92.0033 46.5403C91.9156 46.5403 91.8279 46.5403 91.7403 46.5403L88.4959 46.2136C87.7945 46.1669 87.3561 45.7935 87.4437 45.4201L91.8279 32.1182C91.9156 31.7449 92.6171 31.5115 93.3186 31.5582L96.5629 31.8382C97.2644 31.8849 97.7028 32.2583 97.6151 32.6316L93.2309 45.9335C93.1432 46.1202 92.9678 46.2603 92.7048 46.3536C92.5294 46.4936 92.2664 46.5403 92.0033 46.5403ZM91.8279 46.2603C92.0033 46.2603 92.2664 46.2603 92.4417 46.1669C92.6171 46.0736 92.7048 45.9802 92.7925 45.8869L97.1767 32.585C97.2644 32.3516 96.9136 32.1182 96.4752 32.0716L93.2309 31.7915C92.7925 31.7449 92.354 31.9315 92.2664 32.1649L87.8822 45.4668C87.7945 45.7002 88.1452 45.9335 88.5836 45.9802L91.8279 46.2603Z" fill="#ADADAD"/>
<path d="M98.9308 46.7733H95.6865C95.0727 46.7733 94.6343 46.5399 94.6343 46.2132V32.7246C94.6343 32.3979 95.0727 32.1646 95.6865 32.1646H98.9308C99.5446 32.1646 99.983 32.3979 99.983 32.7246V46.2132C99.983 46.4933 99.4569 46.7733 98.9308 46.7733Z" fill="url(#paint14_linear)"/>
<path d="M98.9312 46.8675H95.6868C94.9854 46.8675 94.3716 46.5408 94.3716 46.1674V32.7255C94.3716 32.3521 94.9854 32.0254 95.6868 32.0254H98.9312C99.6326 32.0254 100.246 32.3521 100.246 32.7255V46.2141C100.159 46.5875 99.6326 46.8675 98.9312 46.8675ZM95.5992 32.2588C95.1607 32.2588 94.7223 32.4455 94.7223 32.7255V46.2141C94.7223 46.4474 95.0731 46.6808 95.5992 46.6808H98.8435C99.2819 46.6808 99.7203 46.4941 99.7203 46.2141V32.7255C99.7203 32.4921 99.3696 32.2588 98.8435 32.2588H95.5992Z" fill="#ADADAD"/>
<path d="M106.033 46.4477L102.788 46.7744C102.174 46.8211 101.648 46.6344 101.561 46.3077L97.1764 33.0058C97.0887 32.6791 97.4395 32.399 98.0533 32.3524L101.298 32.0257C101.911 31.979 102.437 32.1657 102.525 32.4924L106.909 45.7943C106.997 46.121 106.559 46.401 106.033 46.4477Z" fill="url(#paint15_linear)"/>
<path d="M102.613 46.8678C102.35 46.8678 102.087 46.8212 101.911 46.7278C101.648 46.6345 101.473 46.4478 101.385 46.3077L97.0012 33.0059C96.9135 32.8192 97.0012 32.6325 97.1766 32.4925C97.3519 32.3524 97.7027 32.2591 97.9657 32.2124L101.21 31.9324C101.561 31.8857 101.912 31.9324 102.175 32.0257C102.438 32.1191 102.613 32.3058 102.701 32.4458L107.085 45.7477C107.173 45.9344 107.085 46.1211 106.909 46.2611C106.734 46.4011 106.383 46.4944 106.12 46.5411L102.876 46.8678C102.701 46.8678 102.613 46.8678 102.613 46.8678ZM101.385 32.1657C101.298 32.1657 101.298 32.1657 101.21 32.1657L97.9657 32.4458C97.7027 32.4458 97.5273 32.5391 97.4396 32.6325C97.3519 32.7258 97.2643 32.8658 97.2643 32.9592L101.648 46.2611C101.648 46.4011 101.824 46.4944 101.999 46.5411C102.175 46.5878 102.438 46.6345 102.613 46.6345L105.857 46.3077C106.12 46.3077 106.296 46.2144 106.383 46.1211C106.646 46.0744 106.646 45.9344 106.646 45.841L102.262 32.5391C102.262 32.3991 102.087 32.3058 101.911 32.2591C101.736 32.2124 101.561 32.1657 101.385 32.1657Z" fill="#ADADAD"/>
<path d="M112.872 45.5132L109.803 46.0733C109.277 46.1667 108.663 46.0266 108.488 45.7466L99.807 33.0515C99.6317 32.7714 99.8947 32.4447 100.421 32.3514L103.49 31.7446C104.016 31.6513 104.63 31.7913 104.805 32.0713L113.486 44.7665C113.749 45.0465 113.398 45.3732 112.872 45.5132Z" fill="url(#paint16_linear)"/>
<path d="M109.452 46.2605C108.926 46.2605 108.4 46.0738 108.225 45.7938L99.5439 33.0986C99.2808 32.7252 99.6316 32.3519 100.333 32.2118L103.402 31.6051C104.103 31.4651 104.805 31.6518 105.068 32.0251L113.749 44.7203C114.012 45.0937 113.661 45.4671 112.96 45.6071L109.891 46.2138C109.715 46.2138 109.54 46.2605 109.452 46.2605ZM103.84 31.8384C103.753 31.8384 103.665 31.8384 103.577 31.8851L100.508 32.4919C100.07 32.5852 99.8946 32.8186 99.9823 33.052L108.663 45.7471C108.838 45.9805 109.277 46.1205 109.715 46.0271L112.784 45.4204C113.223 45.327 113.398 45.0937 113.31 44.8603L104.63 32.1652C104.542 31.9785 104.191 31.8384 103.84 31.8384Z" fill="#ADADAD"/>
<path d="M89.4276 14.0152C89.0871 14.2568 88.7467 14.5588 88.5197 14.8005C88.2927 14.9213 88.1792 15.1025 87.9523 15.2233C87.7253 15.4045 87.3848 15.4045 87.0444 15.3441C86.7039 15.2233 86.7039 15.0421 86.8174 14.8609C87.4983 14.1964 88.1792 13.5923 88.8602 12.9278C89.0871 12.7466 89.3141 12.5654 89.5411 12.4445C89.6546 12.3237 89.8816 12.3237 90.1085 12.3237C90.7895 12.3237 91.4704 12.3237 92.1513 12.3237C92.3783 12.3237 92.6053 12.3237 92.7187 12.4445C93.0592 12.6258 93.2862 12.8674 93.5132 13.0486C94.0806 13.5923 94.648 14.0756 95.2155 14.6192C95.329 14.6797 95.329 14.7401 95.4424 14.8005C95.6694 14.9817 95.5559 15.1629 95.2155 15.2837C94.875 15.4045 94.5345 15.3441 94.3076 15.1629C93.8536 14.8005 93.3997 14.3776 92.9457 14.0152C92.9457 14.0152 92.9457 13.9548 92.8322 13.9548C92.8322 14.0152 92.8322 14.0152 92.8322 14.0756C92.9457 15.1025 93.0592 16.1899 93.0592 17.2168C93.0592 17.8209 93.1727 18.4854 93.1727 19.0894C93.1727 19.3311 92.8322 19.5123 92.4918 19.5727C92.0378 19.5727 91.5839 19.4519 91.5839 19.1499C91.4704 18.6666 91.4704 18.1833 91.3569 17.7001C91.2434 17.1564 91.2434 16.6127 91.1299 16.069C91.1299 16.0086 91.1299 15.9482 90.9029 15.9482C90.7895 15.9482 90.676 16.0086 90.676 16.069C90.5625 16.8543 90.449 17.7001 90.3355 18.4854C90.3355 18.727 90.222 18.9082 90.222 19.1499C90.222 19.3915 89.8815 19.5727 89.3141 19.5727C88.8602 19.5727 88.5197 19.3915 88.5197 19.0894C88.6332 18.3041 88.6332 17.5792 88.7467 16.7939C88.7467 16.1899 88.8602 15.5858 88.8602 14.9213C88.8602 14.6192 88.8602 14.3172 88.9737 14.0152C89.4276 14.0756 89.4276 14.0756 89.4276 14.0152Z" fill="white"/>
<path d="M91.2421 10.3901C92.2635 10.3901 93.0579 10.813 92.9445 11.3567C92.9445 11.9003 92.15 12.2628 91.1287 12.2628C90.1073 12.2628 89.3129 11.8399 89.4263 11.2963C89.5398 10.813 90.3342 10.3901 91.2421 10.3901Z" fill="white"/>
<path d="M105.429 16.7927C105.429 16.8532 105.429 16.9136 105.429 16.9136C105.429 17.6989 105.429 18.4238 105.429 19.2091C105.429 19.5111 105.089 19.6923 104.635 19.6923C104.181 19.6923 103.84 19.5111 103.84 19.2091C103.84 18.4238 103.84 17.6989 103.84 16.9136C103.84 16.8532 103.84 16.8532 103.84 16.7927C103.5 16.7927 103.273 16.7927 103.046 16.7927C102.819 16.7927 102.819 16.7927 102.819 16.6719C103.159 15.8866 103.5 15.0409 103.84 14.2556C103.84 14.1952 103.84 14.1952 103.84 14.1348C103.5 14.3764 103.273 14.6785 102.932 14.9201C102.705 15.0409 102.592 15.2221 102.365 15.343C102.138 15.5242 101.797 15.5242 101.457 15.4638C101.23 15.343 101.116 15.1617 101.343 14.9805C101.911 14.4368 102.592 13.8932 103.159 13.2891C103.5 13.0474 103.727 12.8058 104.067 12.5642C104.181 12.4434 104.408 12.4434 104.748 12.4434C105.429 12.4434 106.11 12.4434 106.677 12.4434C106.904 12.4434 107.131 12.4434 107.358 12.5642C107.699 12.8058 108.039 13.0474 108.266 13.2891C108.834 13.8327 109.515 14.3764 110.082 14.9805C110.309 15.1617 110.195 15.343 109.855 15.4638C109.515 15.5846 109.174 15.5242 108.947 15.343C108.493 14.9805 108.039 14.6181 107.585 14.2556C107.585 14.1952 107.472 14.1952 107.472 14.1348V14.1952C107.812 14.9805 108.153 15.8262 108.38 16.6115C108.493 16.7927 108.38 16.7927 108.153 16.7927C107.926 16.7927 107.699 16.7927 107.472 16.7927C107.472 16.8532 107.472 16.8532 107.472 16.9136C107.472 17.6989 107.472 18.4842 107.472 19.2695C107.472 19.4507 107.358 19.5715 107.018 19.6319C106.45 19.7527 105.883 19.5715 105.883 19.2091C105.883 18.907 105.883 18.605 105.883 18.2425C105.883 17.7593 105.883 17.3364 105.883 16.8532C105.883 16.7927 105.883 16.7927 105.883 16.7323C105.542 16.7927 105.542 16.7927 105.429 16.7927Z" fill="white"/>
<path d="M105.543 12.3224C104.635 12.3224 103.728 11.8995 103.728 11.4162C103.728 10.8726 104.408 10.4497 105.43 10.4497C106.451 10.4497 107.246 10.8726 107.246 11.3558C107.359 11.8995 106.565 12.3224 105.543 12.3224Z" fill="white"/>
<path d="M98.6191 9.36279H97.8247V20.5987H98.6191V9.36279Z" fill="white"/>
<path d="M154.002 23.74H119.162C117.686 23.74 116.438 23.0755 116.438 22.2902V13.4102C116.438 12.6249 117.686 11.9604 119.162 11.9604H153.889C155.364 11.9604 156.613 12.6249 156.613 13.4102V22.2902C156.726 23.0755 155.478 23.74 154.002 23.74Z" fill="#8AA7C9"/>
<path d="M130.964 17.3373C130.737 17.5186 130.624 17.6394 130.397 17.8206C130.283 17.881 130.17 18.0018 130.056 18.0622C129.943 18.1831 129.716 18.1831 129.489 18.1227C129.262 18.0622 129.262 17.9414 129.375 17.8206C129.829 17.3978 130.283 17.0353 130.624 16.6124C130.737 16.4916 130.964 16.3708 131.078 16.3104C131.191 16.25 131.305 16.25 131.418 16.25C131.872 16.25 132.326 16.25 132.666 16.25C132.78 16.25 132.893 16.25 133.007 16.3104C133.234 16.4312 133.347 16.552 133.574 16.6729C133.915 16.9749 134.255 17.3373 134.596 17.6394C134.596 17.6998 134.709 17.6998 134.709 17.7602C134.823 17.881 134.823 18.0018 134.596 18.0622C134.369 18.1227 134.142 18.1227 134.028 18.0018C133.688 17.7602 133.461 17.5186 133.12 17.2769C133.12 17.2769 133.12 17.2769 133.007 17.2165V17.2769C133.007 17.9414 133.12 18.6059 133.12 19.21C133.12 19.5725 133.12 19.9953 133.234 20.3578C133.234 20.539 133.007 20.6598 132.78 20.6598C132.439 20.6598 132.213 20.5994 132.213 20.4182C132.213 20.1161 132.099 19.8141 132.099 19.512C132.099 19.1496 131.986 18.8476 131.986 18.4851C131.986 18.4247 131.986 18.4247 131.872 18.4247C131.759 18.4247 131.759 18.4851 131.759 18.4851C131.645 18.9684 131.645 19.512 131.532 19.9953C131.532 20.1161 131.532 20.2973 131.532 20.4182C131.532 20.5994 131.305 20.6598 130.964 20.6598C130.737 20.6598 130.51 20.539 130.51 20.3578C130.51 19.8745 130.624 19.3912 130.624 18.908C130.624 18.5455 130.624 18.1227 130.737 17.7602C130.964 17.7602 130.964 17.579 130.964 17.3373Z" fill="white"/>
<path d="M132.1 15.042C132.667 15.042 133.235 15.2836 133.235 15.6461C133.235 15.9481 132.781 16.2502 132.1 16.2502C131.532 16.2502 130.965 16.0085 130.965 15.6461C130.965 15.2836 131.532 15.042 132.1 15.042Z" fill="white"/>
<path d="M140.837 19.0291C140.837 19.0895 140.837 19.0895 140.837 19.0895C140.837 19.5727 140.837 20.056 140.837 20.4788C140.837 20.6601 140.61 20.7809 140.383 20.7809C140.043 20.7809 139.929 20.6601 139.929 20.4788C139.929 19.9956 139.929 19.5123 139.929 19.0895V19.0291C139.702 19.0291 139.589 19.0291 139.362 19.0291C139.248 19.0291 139.248 19.0291 139.248 18.9686C139.475 18.4854 139.702 17.9417 139.816 17.4584V17.398C139.589 17.5793 139.475 17.7001 139.248 17.8813C139.135 17.9417 139.021 18.0625 138.908 18.1229C138.794 18.2437 138.567 18.2437 138.34 18.1833C14313 18.1229 14313 18.0021 138.227 17.8813C138.567 17.5188 139.021 17.2168 139.362 16.8544C139.589 16.6731 139.702 16.5523 139.929 16.4315C140.043 16.3711 140.156 16.3711 140.383 16.3711C140.837 16.3711 141.178 16.3711 141.632 16.3711C141.745 16.3711 141.972 16.3711 142.085 16.4315C142.312 16.5523 142.539 16.7335 142.653 16.8544C142.993 17.2168 143.447 17.5188 143.788 17.8813C143.901 18.0021 143.901 18.1229 143.674 18.1833C143.447 18.2437 143.22 18.2437 143.107 18.1229C142.88 17.8813 142.539 17.6397 142.312 17.4584C142.312 17.4584 142.312 17.398 142.199 17.398V17.4584C142.426 17.9417 142.539 18.4854 142.766 18.9686C142.766 19.0895 142.766 19.0895 142.653 19.0895C142.539 19.0895 142.312 19.0895 142.199 19.0895C142.199 19.1499 142.199 19.1499 142.199 19.1499C142.199 19.6331 142.199 20.1164 142.199 20.5997C142.199 20.7205 142.085 20.7809 141.858 20.8413C141.518 20.9017 141.178 20.7809 141.178 20.5997C141.178 20.4184 141.178 20.2372 141.178 19.9956C141.178 19.6935 141.178 19.4519 141.178 19.1499V19.0895C140.951 19.0291 140.951 19.0291 140.837 19.0291Z" fill="white"/>
<path d="M140.951 16.2498C140.383 16.2498 139.816 16.0082 139.816 15.7061C139.816 15.3437 140.27 15.1021 140.837 15.1021C141.405 15.1021 141.972 15.3437 141.972 15.6457C142.086 16.0082 141.632 16.2498 140.951 16.2498Z" fill="white"/>
<path d="M136.752 14.438H136.185V21.3849H136.752V14.438Z" fill="white"/>
<path d="M176.927 1.51034C176.927 2.05402 176.133 2.47687 175.111 2.47687H166.259C165.238 2.47687 164.443 2.05402 164.443 1.51034V0.0605469H163.876V1.51034C163.876 2.17483 164.897 2.77891 166.259 2.77891H175.111C176.36 2.77891 177.494 2.23524 177.494 1.51034V0.0605469H176.927V1.51034Z" fill="#A3A3A3"/>
<path d="M170.799 1.51034C172.501 1.51034 173.863 0.906261 174.203 0.0605469H167.394C167.735 0.845853 169.096 1.51034 170.799 1.51034Z" fill="#8AA7C9"/>
<path opacity="0.44" d="M170.798 1.63116C168.983 1.63116 167.507 0.966669 167.053 0.0605469H166.713C167.053 1.02708 168.756 1.81238 170.685 1.81238C172.614 1.81238 174.317 1.08749 174.657 0.0605469H174.317C174.09 0.966669 172.614 1.63116 170.798 1.63116Z" fill="#A3A3A3"/>
<path d="M170.798 1.63116C172.614 1.63116 174.089 0.966669 174.543 0.0605469H174.203C173.862 0.845853 172.387 1.51034 170.798 1.51034C169.209 1.51034 167.734 0.906261 167.394 0.0605469H167.053C167.507 0.966669 168.983 1.63116 170.798 1.63116Z" fill="#8AA7C9"/>
<path opacity="0.44" d="M170.798 1.63116C172.614 1.63116 174.089 0.966669 174.543 0.0605469H174.203C173.862 0.845853 172.387 1.51034 170.798 1.51034C169.209 1.51034 167.734 0.906261 167.394 0.0605469H167.053C167.507 0.966669 168.983 1.63116 170.798 1.63116Z" fill="#A3A3A3"/>
<defs>
<linearGradient id="paint0_linear" x1="5.94256" y1="73.5519" x2="184.861" y2="73.5519" gradientUnits="userSpaceOnUse">
<stop stop-color="#B3B3B3"/>
<stop offset="0.0628105" stop-color="#C6C6C6"/>
<stop offset="0.1677" stop-color="#DFDFDF"/>
<stop offset="0.2771" stop-color="#F1F1F1"/>
<stop offset="0.3928" stop-color="#FCFCFC"/>
<stop offset="0.5251" stop-color="white"/>
<stop offset="0.6454" stop-color="#FCFCFC"/>
<stop offset="0.7498" stop-color="#F1F1F1"/>
<stop offset="0.8483" stop-color="#DFDFDF"/>
<stop offset="0.9426" stop-color="#C6C6C6"/>
<stop offset="1" stop-color="#B3B3B3"/>
</linearGradient>
<linearGradient id="paint1_linear" x1="100.802" y1="132.761" x2="100.802" y2="54.7658" gradientUnits="userSpaceOnUse">
<stop stop-color="white"/>
<stop offset="0.1075" stop-color="#F7F7F7"/>
<stop offset="0.2698" stop-color="#E3E3E3"/>
<stop offset="0.4659" stop-color="#C1C1C1"/>
<stop offset="0.5363" stop-color="#B3B3B3"/>
<stop offset="1" stop-color="#FDFDFD"/>
</linearGradient>
<linearGradient id="paint2_linear" x1="92.8469" y1="132.727" x2="91.061" y2="54.6998" gradientUnits="userSpaceOnUse">
<stop stop-color="white"/>
<stop offset="0.1075" stop-color="#F7F7F7"/>
<stop offset="0.2698" stop-color="#E3E3E3"/>
<stop offset="0.4659" stop-color="#C1C1C1"/>
<stop offset="0.5363" stop-color="#B3B3B3"/>
<stop offset="1" stop-color="#FDFDFD"/>
</linearGradient>
<linearGradient id="paint3_linear" x1="108.729" y1="38.7507" x2="111.589" y2="35.6485" gradientUnits="userSpaceOnUse">
<stop stop-color="#CCCCCC"/>
<stop offset="0.2264" stop-color="#D4D4D4"/>
<stop offset="0.5363" stop-color="#E6E6E6"/>
<stop offset="1" stop-color="#E6E6E6"/>
</linearGradient>
<linearGradient id="paint4_linear" x1="113.058" y1="37.6603" x2="115.077" y2="34.4771" gradientUnits="userSpaceOnUse">
<stop stop-color="#CCCCCC"/>
<stop offset="0.2264" stop-color="#D4D4D4"/>
<stop offset="0.5363" stop-color="#E6E6E6"/>
<stop offset="1" stop-color="#E6E6E6"/>
</linearGradient>
<linearGradient id="paint5_linear" x1="116.965" y1="36.1923" x2="118.36" y2="33.0693" gradientUnits="userSpaceOnUse">
<stop stop-color="#CCCCCC"/>
<stop offset="0.2264" stop-color="#D4D4D4"/>
<stop offset="0.5363" stop-color="#E6E6E6"/>
<stop offset="1" stop-color="#E6E6E6"/>
</linearGradient>
<linearGradient id="paint6_linear" x1="120.334" y1="34.3806" x2="121.264" y2="31.3531" gradientUnits="userSpaceOnUse">
<stop stop-color="#CCCCCC"/>
<stop offset="0.2264" stop-color="#D4D4D4"/>
<stop offset="0.5363" stop-color="#E6E6E6"/>
<stop offset="1" stop-color="#E6E6E6"/>
</linearGradient>
<linearGradient id="paint7_linear" x1="72.0429" y1="27.8715" x2="72.6666" y2="31.0909" gradientUnits="userSpaceOnUse">
<stop stop-color="#CCCCCC"/>
<stop offset="0.2264" stop-color="#D4D4D4"/>
<stop offset="0.5363" stop-color="#E6E6E6"/>
<stop offset="1" stop-color="#E6E6E6"/>
</linearGradient>
<linearGradient id="paint8_linear" x1="73.4281" y1="30.5595" x2="74.4458" y2="33.871" gradientUnits="userSpaceOnUse">
<stop stop-color="#CCCCCC"/>
<stop offset="0.2264" stop-color="#D4D4D4"/>
<stop offset="0.5363" stop-color="#E6E6E6"/>
<stop offset="1" stop-color="#E6E6E6"/>
</linearGradient>
<linearGradient id="paint9_linear" x1="75.5419" y1="32.6039" x2="76.9745" y2="35.8111" gradientUnits="userSpaceOnUse">
<stop stop-color="#CCCCCC"/>
<stop offset="0.2264" stop-color="#D4D4D4"/>
<stop offset="0.5363" stop-color="#E6E6E6"/>
<stop offset="1" stop-color="#E6E6E6"/>
</linearGradient>
<linearGradient id="paint10_linear" x1="78.2546" y1="34.4936" x2="80.2738" y2="37.6768" gradientUnits="userSpaceOnUse">
<stop stop-color="#CCCCCC"/>
<stop offset="0.2264" stop-color="#D4D4D4"/>
<stop offset="0.5363" stop-color="#E6E6E6"/>
<stop offset="1" stop-color="#E6E6E6"/>
</linearGradient>
<linearGradient id="paint11_linear" x1="81.6611" y1="36.2859" x2="84.5212" y2="39.3882" gradientUnits="userSpaceOnUse">
<stop stop-color="#CCCCCC"/>
<stop offset="0.2264" stop-color="#D4D4D4"/>
<stop offset="0.5363" stop-color="#E6E6E6"/>
<stop offset="1" stop-color="#E6E6E6"/>
</linearGradient>
<linearGradient id="paint12_linear" x1="85.5985" y1="37.7369" x2="89.508" y2="40.4099" gradientUnits="userSpaceOnUse">
<stop stop-color="#CCCCCC"/>
<stop offset="0.2264" stop-color="#D4D4D4"/>
<stop offset="0.5363" stop-color="#E6E6E6"/>
<stop offset="1" stop-color="#E6E6E6"/>
</linearGradient>
<linearGradient id="paint13_linear" x1="89.9475" y1="38.7994" x2="94.8806" y2="40.4331" gradientUnits="userSpaceOnUse">
<stop stop-color="#CCCCCC"/>
<stop offset="0.2264" stop-color="#D4D4D4"/>
<stop offset="0.5363" stop-color="#E6E6E6"/>
<stop offset="1" stop-color="#E6E6E6"/>
</linearGradient>
<linearGradient id="paint14_linear" x1="94.5755" y1="39.4488" x2="99.9667" y2="39.4488" gradientUnits="userSpaceOnUse">
<stop stop-color="#CCCCCC"/>
<stop offset="0.2264" stop-color="#D4D4D4"/>
<stop offset="0.5363" stop-color="#E6E6E6"/>
<stop offset="1" stop-color="#E6E6E6"/>
</linearGradient>
<linearGradient id="paint15_linear" x1="99.3426" y1="39.6606" x2="104.276" y2="38.0269" gradientUnits="userSpaceOnUse">
<stop stop-color="#CCCCCC"/>
<stop offset="0.2264" stop-color="#D4D4D4"/>
<stop offset="0.5363" stop-color="#E6E6E6"/>
<stop offset="1" stop-color="#E6E6E6"/>
</linearGradient>
<linearGradient id="paint16_linear" x1="104.112" y1="39.424" x2="108.021" y2="36.751" gradientUnits="userSpaceOnUse">
<stop stop-color="#CCCCCC"/>
<stop offset="0.2264" stop-color="#D4D4D4"/>
<stop offset="0.5363" stop-color="#E6E6E6"/>
<stop offset="1" stop-color="#E6E6E6"/>
</linearGradient>
</defs>
</svg>
